<?xml version="1.0" encoding="UTF-8" standalone="no"?>
<!-- Created with Inkscape (http://www.inkscape.org/) -->

<svg
   width="400mm"
   height="400mm"
   viewBox="0 0 400 400"
   version="1.1"
   id="svg5"
   xml:space="preserve"
   xmlns="http://www.w3.org/2000/svg"
   xmlns:svg="http://www.w3.org/2000/svg"><defs
     id="defs2"><filter
       style="color-interpolation-filters:sRGB"
       id="filter1"
       x="-0.0028624689"
       y="-0.0027584203"
       width="1.0057249"
       height="1.0055168"><feGaussianBlur
         stdDeviation="0.25171356"
         id="feGaussianBlur1" /></filter><filter
       style="color-interpolation-filters:sRGB"
       id="filter2"
       x="-0.0026335948"
       y="-0.0026335632"
       width="1.0052672"
       height="1.0052671"><feGaussianBlur
         stdDeviation="8.6612345"
         id="feGaussianBlur2" /></filter><filter
       style="color-interpolation-filters:sRGB"
       id="filter3"
       x="-0.0098420639"
       width="1.0196841"
       y="-inf"
       height="inf"><feGaussianBlur
         stdDeviation="0.25171356"
         id="feGaussianBlur3" /></filter><filter
       style="color-interpolation-filters:sRGB"
       id="filter4"
       x="-0.01003942"
       y="-0.0053508903"
       width="1.0200788"
       height="1.0107018"><feGaussianBlur
         stdDeviation="0.25171356"
         id="feGaussianBlur4" /></filter></defs><g
     id="layer1"
     transform="translate(-64.086925,-131.37389)"><path
       id="path1490"
       style="font-style:normal;font-variant:normal;font-weight:normal;font-stretch:normal;font-size:167.5px;font-family:'DejaVu Sans Mono';-inkscape-font-specification:'DejaVu Sans Mono';mix-blend-mode:normal;fill:#00688f;fill-opacity:1;stroke-width:1.07353;filter:url(#filter1)"
       d="m 156.75476,296.71201 83.18576,138.98066 -49.20085,80.02606 h 40.652 l 30.30862,-50.72546 28.083,50.72546 h 39.0775 L 281.72626,435.69267 367.80075,296.71201 H 326.01503 L 261.70029,408.1739 198.54051,296.71201 Z" /><g
       transform="matrix(0.0301795,0,0,-0.02798605,143.00472,355.60236)"
       fill="#000000"
       stroke="none"
       id="g10077"
       style="mix-blend-mode:normal;fill:#00688f;fill-opacity:1;filter:url(#filter2)"><path
         d="m 3590,7890 c -151,-16 -325,-42 -334,-51 -6,-5 15,-9 50,-9 67,0 157,-26 151,-44 -2,-6 -24,-14 -48,-18 -24,-3 -72,-18 -106,-32 -35,-14 -68,-26 -75,-26 -7,0 -55,-20 -105,-45 -51,-24 -104,-47 -118,-51 -14,-3 -27,-10 -30,-14 -9,-14 -110,-59 -130,-58 -11,1 -46,-15 -77,-35 -43,-28 -64,-36 -83,-31 -29,7 -56,-11 -49,-31 9,-21 -11,-26 -124,-29 -84,-2 -118,-8 -156,-25 -27,-11 -58,-21 -70,-22 -36,-1 -153,-34 -171,-49 -15,-12 -211,-110 -221,-110 -21,0 48,98 91,130 116,86 325,189 625,308 138,55 218,90 209,91 -15,2 -283,-94 -393,-140 C 1900,7378 1402,7028 1036,6622 471,5997 135,5269 23,4430 -3,4236 -3,3664 23,3470 165,2408 690,1481 1515,835 2074,397 2741,120 3470,23 c 194,-26 766,-26 960,0 1062,142 1989,667 2635,1492 438,559 715,1226 812,1955 26,194 26,766 0,960 -49,370 -149,742 -287,1065 -50,118 -190,398 -196,392 -5,-5 78,-209 136,-332 23,-49 50,-110 60,-135 23,-59 43,-209 30,-225 -6,-7 -7,-29 -2,-57 5,-25 5,-55 0,-68 -6,-17 -3,-38 13,-74 12,-28 28,-77 34,-109 11,-51 11,-59 -3,-64 -23,-9 -39,22 -47,90 -9,76 -21,110 -36,101 -8,-4 -10,-32 -7,-81 5,-71 11,-86 97,-257 98,-194 117,-254 108,-355 -18,-193 -27,-265 -36,-274 -8,-8 -11,5 -11,44 0,61 -6,73 -37,83 -13,4 -30,26 -43,54 -12,26 -32,52 -45,58 -23,11 -23,10 -18,-25 2,-20 9,-56 14,-81 6,-29 6,-57 -1,-80 -16,-54 -13,-93 5,-86 17,6 37,-31 55,-101 8,-32 16,-43 30,-43 11,0 20,-6 20,-13 0,-7 11,-29 26,-48 21,-29 24,-41 19,-80 -4,-30 -1,-65 9,-100 39,-128 3,-148 -55,-30 -21,40 -40,97 -43,125 -4,29 -17,67 -29,86 -93,143 -93,142 -77,190 17,53 8,140 -20,178 -12,16 -24,49 -27,73 -4,24 -16,60 -29,79 -12,19 -29,59 -39,88 -9,28 -20,52 -25,52 -11,0 -20,-37 -20,-82 0,-33 -3,-38 -23,-38 -30,0 -45,31 -53,108 -8,68 -16,84 -61,131 -19,20 -37,48 -40,63 -3,17 -10,25 -18,21 -8,-3 -24,10 -37,31 -17,26 -28,34 -41,30 -13,-4 -20,0 -24,15 -3,12 -9,21 -13,21 -4,0 -32,-27 -62,-60 -55,-59 -56,-60 -60,-130 -2,-39 -9,-74 -14,-78 -6,-4 -14,-24 -18,-45 -9,-50 -58,-172 -78,-194 -8,-10 -18,-33 -22,-51 -3,-19 -15,-47 -27,-63 -18,-25 -20,-39 -15,-87 15,-140 17,-180 8,-213 -6,-25 -5,-42 6,-65 13,-29 13,-34 -8,-62 -16,-21 -21,-38 -16,-55 4,-18 -1,-33 -17,-54 -13,-15 -27,-40 -31,-55 -3,-15 -15,-30 -28,-34 -24,-7 -45,14 -80,86 -12,25 -39,68 -60,96 -21,27 -53,85 -73,127 -19,41 -56,106 -81,143 -26,37 -51,81 -57,98 -6,17 -17,42 -26,55 -18,29 -70,225 -80,303 -6,55 -15,77 -26,66 -3,-3 0,-17 6,-31 10,-23 8,-30 -15,-57 -14,-17 -26,-36 -26,-41 0,-15 -18,-10 -37,10 -10,11 -31,24 -46,30 -33,13 -34,29 -5,66 l 21,27 -29,-6 c -39,-9 -118,34 -185,99 l -50,48 -42,-13 c -23,-7 -77,-16 -120,-21 -54,-5 -85,-14 -103,-28 -34,-27 -83,-27 -204,-1 -89,19 -97,23 -136,66 -44,48 -60,50 -94,10 -9,-12 -31,-16 -75,-16 -54,0 -68,4 -94,26 -17,14 -46,30 -65,35 -30,8 -37,17 -61,77 -40,99 -38,97 -79,94 -31,-2 -36,0 -36,18 0,28 -19,25 -30,-5 -5,-14 -16,-25 -25,-25 -8,0 -15,-2 -15,-5 0,-18 34,-66 59,-84 16,-12 35,-37 41,-56 7,-22 18,-35 29,-35 22,0 41,-19 41,-42 0,-11 7,-18 19,-18 23,0 38,-37 22,-53 -6,-6 -11,-20 -11,-31 0,-19 2,-18 26,7 39,42 60,32 56,-27 l -2,-48 82,7 c 46,4 89,12 97,19 8,6 27,39 42,74 26,58 31,63 56,60 25,-3 28,-9 40,-68 7,-35 17,-68 21,-72 5,-5 39,-15 76,-22 37,-8 69,-16 70,-18 1,-2 17,-22 34,-44 36,-47 39,-64 16,-99 -9,-14 -14,-39 -12,-62 3,-36 1,-38 -26,-38 -35,0 -43,-16 -22,-47 8,-13 19,-42 25,-66 10,-49 -2,-62 -39,-42 -30,16 -52,-4 -48,-44 2,-26 -2,-33 -27,-45 -16,-8 -34,-20 -38,-27 -4,-7 -24,-18 -45,-23 -46,-13 -172,-79 -172,-91 0,-17 -52,-70 -68,-70 -23,0 -140,-56 -178,-85 -17,-13 -44,-27 -60,-31 -16,-4 -51,-18 -79,-31 -27,-12 -62,-23 -76,-23 -15,0 -53,-16 -85,-35 -85,-52 -105,-46 -122,33 -6,23 -22,56 -36,73 -21,24 -26,41 -24,68 2,29 7,35 22,33 20,-4 20,-3 -23,63 -14,22 -39,67 -56,100 -19,38 -60,90 -113,143 -46,46 -87,95 -93,109 -5,13 -6,48 -3,78 6,45 3,58 -15,81 -11,15 -21,33 -21,40 0,8 -12,16 -27,20 -66,13 -73,21 -73,69 0,61 -8,75 -103,173 -79,83 -79,84 -73,125 5,28 4,39 -3,32 -5,-5 -11,-28 -13,-50 -2,-33 -7,-41 -26,-43 -18,-3 -23,2 -28,28 -6,27 -44,60 -69,60 -10,0 28,-65 51,-87 13,-12 24,-29 24,-38 0,-9 10,-37 23,-63 13,-26 29,-72 36,-102 10,-41 24,-66 54,-97 32,-34 38,-46 29,-55 -19,-19 -15,-26 32,-47 46,-20 66,-45 66,-80 0,-12 9,-26 20,-33 18,-12 20,-24 20,-120 v -107 l 30,-16 c 50,-26 67,-54 90,-145 23,-93 29,-100 90,-100 42,0 88,-32 123,-85 17,-27 41,-51 52,-54 26,-4 35,-19 35,-58 0,-43 17,-79 44,-91 14,-6 79,-4 201,9 171,17 184,20 252,55 73,37 103,39 103,6 0,-11 10,-32 22,-47 l 22,-28 -27,-19 c -21,-15 -27,-28 -27,-55 0,-25 -7,-43 -25,-59 -16,-14 -25,-34 -25,-52 0,-19 -11,-40 -30,-60 -24,-25 -30,-41 -30,-74 0,-31 -10,-59 -39,-107 -21,-36 -50,-87 -65,-114 -29,-51 -57,-73 -120,-97 -31,-12 -46,-25 -59,-53 -11,-25 -36,-49 -72,-72 -30,-19 -66,-51 -82,-71 -15,-20 -44,-47 -65,-60 -28,-18 -38,-31 -38,-49 0,-17 -8,-29 -25,-37 -17,-8 -25,-19 -25,-37 0,-20 -21,-46 -83,-106 -115,-111 -125,-132 -85,-185 18,-25 20,-33 10,-55 -21,-45 -15,-84 13,-97 14,-6 25,-17 25,-24 0,-7 13,-27 29,-44 29,-32 43,-81 44,-153 1,-20 5,-37 9,-37 4,0 8,-17 8,-37 0,-20 6,-44 14,-52 14,-16 19,-34 17,-58 -1,-16 -101,-83 -123,-83 -9,0 -40,-14 -68,-30 -28,-17 -55,-30 -60,-30 -4,0 -33,-23 -64,-50 -31,-29 -75,-58 -100,-66 -25,-9 -49,-20 -52,-25 -8,-13 14,-76 34,-96 13,-12 17,-35 17,-89 0,-66 -2,-74 -23,-84 -13,-5 -28,-10 -34,-10 -6,0 -37,-12 -69,-26 -56,-25 -59,-28 -59,-63 0,-20 -9,-49 -20,-66 -11,-16 -20,-42 -20,-57 0,-23 -11,-32 -84,-72 -46,-25 -103,-62 -126,-81 -56,-47 -105,-59 -230,-56 -58,1 -148,3 -200,4 -122,3 -174,19 -200,64 -24,41 -25,53 -5,53 21,0 19,17 -5,30 -11,6 -42,40 -70,77 -28,36 -81,92 -119,124 -73,62 -108,111 -108,151 0,14 -17,52 -37,85 -20,32 -36,68 -36,79 0,23 -22,55 -87,126 -24,26 -43,56 -43,67 0,11 -14,30 -31,42 -17,12 -38,37 -45,55 -18,43 -18,134 0,160 10,13 11,25 5,35 -17,27 -9,59 26,98 19,21 35,46 35,54 0,28 -49,151 -64,163 -11,8 -15,26 -13,64 1,35 -2,55 -10,57 -7,3 -13,12 -13,22 0,9 -11,33 -25,51 -14,19 -25,41 -24,50 4,33 -14,100 -32,119 -11,11 -37,25 -58,31 -40,11 -72,46 -76,84 -1,12 -3,24 -4,28 0,4 -11,8 -23,10 -16,2 -22,9 -20,23 1,11 -8,39 -20,62 l -22,42 22,18 c 17,14 23,36 31,108 6,50 13,105 17,123 5,28 4,32 -14,32 -16,0 -24,10 -32,40 -14,53 -38,64 -115,52 -80,-13 -98,-3 -124,67 -26,72 -60,106 -96,97 -22,-6 -28,-3 -32,14 -8,29 -41,26 -138,-15 -72,-29 -91,-33 -136,-28 -43,5 -54,11 -68,35 -15,26 -19,28 -59,22 -31,-5 -49,-2 -68,11 -23,15 -27,15 -49,1 -28,-18 -68,-21 -96,-6 -10,6 -42,45 -71,88 -29,42 -72,99 -97,126 l -46,48 -2,107 c -2,92 -5,108 -22,122 -12,10 -25,42 -35,88 -8,40 -21,80 -29,89 -8,10 -18,40 -22,67 -10,67 -6,209 6,213 20,8 39,34 39,57 0,13 4,25 10,27 5,2 17,28 26,58 37,129 44,176 39,236 -6,58 -5,64 23,95 16,19 59,81 96,137 81,125 156,208 213,234 23,10 45,23 48,28 3,6 15,10 26,10 10,0 33,14 51,30 17,17 35,30 39,30 5,0 9,12 9,28 0,15 11,45 25,67 13,22 31,53 38,68 8,17 42,44 89,72 41,24 82,54 90,67 9,13 27,35 40,49 21,23 24,33 19,65 -6,35 -10,39 -39,42 -36,4 -36,3 -21,71 7,33 31,81 70,138 34,50 66,112 75,143 26,91 34,98 100,95 36,-2 64,-10 78,-22 32,-28 82,-53 104,-53 24,0 82,52 82,73 0,19 31,31 41,16 4,-7 7,-2 7,12 -1,13 2,48 6,77 6,49 5,54 -13,59 -12,3 -21,9 -21,13 0,4 -10,10 -22,13 l -22,6 24,27 c 35,36 60,48 73,35 18,-18 45,-13 52,10 6,17 12,20 33,15 85,-20 98,-19 126,9 32,31 131,79 150,72 16,-6 41,18 50,49 5,15 18,24 41,28 18,4 44,15 57,25 18,15 33,18 76,14 l 53,-6 -13,28 c -11,25 -10,29 17,51 32,25 45,23 45,-6 0,-25 35,-43 69,-37 37,8 81,-3 81,-20 0,-10 5,-11 18,-5 9,5 40,12 67,15 28,3 65,9 84,13 29,6 33,5 28,-9 -4,-10 -4,-17 -1,-17 10,0 94,85 94,95 0,6 21,34 46,63 l 47,53 24,-23 24,-23 19,25 c 25,33 25,37 -5,44 -32,8 -32,31 0,52 18,11 46,16 96,15 82,-1 119,6 119,24 0,27 -81,26 -159,-2 l -74,-27 -18,23 c -23,28 -24,44 -4,61 8,7 18,29 21,50 5,28 17,47 48,72 23,20 53,39 66,43 55,17 65,40 21,50 -32,7 -81,-17 -81,-40 0,-15 -64,-55 -88,-55 -9,0 -31,-9 -49,-20 -36,-21 -58,-82 -48,-129 5,-24 1,-30 -36,-50 -25,-14 -46,-36 -54,-56 -8,-17 -21,-37 -29,-45 -9,-7 -16,-18 -16,-24 -1,-14 -128,-96 -151,-96 -15,0 -17,10 -15,83 2,45 8,95 15,111 6,16 10,31 7,33 -8,8 -65,-27 -75,-46 -12,-21 -60,-41 -102,-41 -34,0 -44,13 -24,30 9,8 13,21 9,32 -7,23 21,58 48,58 13,0 18,7 18,29 0,33 20,54 44,45 9,-3 16,-1 16,5 0,6 -7,11 -15,11 -8,0 -15,5 -15,10 0,18 64,50 98,50 43,0 81,23 107,63 11,18 40,43 64,56 25,14 38,26 32,30 -15,9 68,64 86,57 8,-3 13,2 13,14 0,10 13,28 29,39 34,25 53,27 45,6 -7,-17 4,-19 25,-6 7,5 11,13 7,19 -7,12 0,14 94,33 36,7 71,19 78,26 17,16 46,17 72,1 15,-10 25,-10 38,-2 27,17 97,3 96,-19 -2,-13 3,-16 17,-12 12,4 21,1 25,-9 4,-11 20,-16 48,-17 60,-1 90,-12 101,-36 5,-12 19,-26 32,-32 25,-12 30,-30 11,-49 -17,-17 -90,-15 -114,3 -25,19 -40,19 -24,0 8,-10 10,-29 6,-54 -5,-34 -3,-42 16,-55 34,-24 40,-19 23,14 -19,36 -13,50 21,50 31,0 84,26 84,42 0,7 19,9 60,5 33,-3 60,-2 60,2 0,5 -13,27 -30,49 -16,23 -30,44 -30,47 0,7 75,6 94,-1 10,-4 16,-18 16,-35 0,-24 4,-29 25,-29 30,0 31,5 5,48 -25,41 -26,41 10,40 23,-1 30,-6 30,-20 0,-23 24,-18 77,13 22,14 33,16 38,8 5,-7 23,-9 51,-4 25,3 52,2 64,-5 15,-8 20,-8 20,2 -1,22 -26,48 -46,48 -26,0 -48,16 -40,29 4,6 15,7 29,1 12,-4 31,-11 42,-15 25,-8 217,-13 209,-6 -3,3 -29,18 -57,32 -46,22 -52,29 -55,60 -2,19 -8,38 -13,43 -13,15 -11,26 6,26 19,0 85,-32 85,-41 0,-4 17,-17 38,-29 l 37,-22 -34,35 c -48,51 -30,66 25,21 24,-20 47,-34 50,-32 3,3 -9,16 -25,28 -17,12 -31,26 -31,31 0,12 37,12 45,-1 3,-5 16,-10 28,-10 21,0 21,1 -3,17 -14,9 -27,18 -30,21 -3,2 4,10 14,18 19,13 18,14 -10,14 -17,0 -39,6 -49,14 -19,14 -19,15 -2,34 17,19 17,20 -3,25 -18,5 -20,9 -10,26 12,24 75,30 83,9 2,-7 8,-10 12,-6 4,4 2,14 -4,22 -10,12 -3,17 43,30 l 55,16 66,-44 c 66,-46 89,-49 100,-15 11,33 35,49 76,49 21,0 39,4 39,9 0,12 -88,37 -160,46 -30,3 -62,12 -70,20 -17,14 -275,67 -450,91 -133,18 -712,28 -850,14 z m 1145,-167 c -10,-41 -19,-46 -64,-38 -50,8 -54,25 -6,25 24,0 37,6 45,20 16,30 33,25 25,-7 z m -255,-23 c 13,0 13,-1 0,-10 -10,-6 6,-7 45,-4 l 60,5 -38,-20 c -38,-20 -97,-20 -97,0 0,5 -9,9 -19,9 -23,0 -35,15 -27,35 4,12 9,12 33,0 15,-8 35,-15 43,-15 z m -520,-40 c -13,-8 -12,-10 4,-10 15,0 16,-3 6,-15 -19,-23 -38,-18 -36,10 1,18 7,25 21,25 17,0 17,-2 5,-10 z m -82,-22 c -3,-7 -11,-13 -18,-13 -7,0 -15,6 -17,13 -3,7 4,12 17,12 13,0 20,-5 18,-12 z m -349,-28 c 6,0 11,4 11,9 0,5 9,12 20,16 21,7 90,-4 90,-14 0,-3 -21,-14 -46,-25 -28,-12 -49,-28 -54,-42 -6,-15 -18,-24 -31,-24 -18,0 -20,4 -15,25 5,20 3,25 -14,25 -23,0 -23,0 -9,37 10,26 12,27 23,11 7,-10 18,-18 25,-18 z m 849,-29 c 3,-8 0,-11 -6,-7 -14,9 -65,-12 -57,-23 3,-6 -4,-15 -15,-21 -17,-9 -19,-14 -9,-26 9,-11 7,-14 -10,-14 -12,0 -24,-7 -27,-15 -4,-10 -20,-15 -48,-15 -40,0 -41,1 -41,33 0,28 4,32 28,35 19,2 27,9 27,22 0,12 9,22 25,26 13,3 29,11 34,18 14,16 93,6 99,-13 z m -716,-6 c 1,-12 -71,-25 -78,-14 -7,12 28,29 54,26 12,-1 23,-6 24,-12 z m 603,-151 c 9,-14 30,-30 46,-36 16,-5 29,-14 29,-18 0,-13 -71,-23 -83,-11 -6,6 -15,6 -27,-1 -15,-9 -23,-6 -44,17 -14,15 -24,30 -22,34 1,3 6,14 9,24 10,28 71,23 92,-9 z M 2540,7255 c 0,-45 -63,-105 -111,-105 -14,0 -30,-5 -35,-10 -11,-11 -81,-4 -105,11 -11,7 -3,19 33,56 41,41 55,48 100,54 94,11 118,10 118,-6 z m 80,-334 c 0,-16 -38,-51 -55,-51 -5,0 4,48 12,63 9,16 43,7 43,-12 z m -260,-81 c -6,-10 -18,-23 -26,-28 -10,-5 -12,-12 -7,-15 6,-4 21,5 33,18 26,28 61,32 80,10 9,-11 10,-18 1,-29 -6,-7 -9,-20 -5,-29 7,-19 -20,-73 -41,-81 -11,-4 -14,-13 -9,-31 4,-15 1,-32 -6,-40 -10,-12 -10,-15 0,-15 7,0 10,-8 7,-20 -3,-13 5,-30 26,-51 l 32,-31 -27,-22 c -16,-12 -28,-27 -28,-34 0,-6 -15,-15 -32,-20 -21,-5 -34,-15 -36,-28 -8,-45 -65,-56 -145,-29 -40,13 -48,13 -75,-1 -24,-11 -36,-13 -52,-4 -25,13 -26,30 -2,30 29,0 58,27 91,84 16,30 39,57 49,60 10,4 33,22 52,41 28,29 31,37 20,50 -11,13 -7,25 19,75 31,58 29,70 -8,50 -16,-8 -18,-5 -18,15 0,14 4,28 10,32 7,4 8,0 4,-11 -4,-11 -3,-16 4,-14 6,2 9,7 7,10 -5,10 64,78 79,78 11,0 11,-5 3,-20 z m -170,-164 c 0,-7 9,-16 20,-19 29,-7 25,-24 -10,-46 -17,-10 -49,-42 -71,-72 -38,-52 -42,-54 -97,-61 -44,-4 -59,-3 -65,8 -4,8 -15,14 -22,14 -8,0 -15,4 -15,10 0,11 40,34 40,23 0,-4 5,0 11,10 8,14 14,15 24,7 10,-8 18,-4 34,19 12,16 21,38 21,49 0,23 28,38 43,23 7,-7 19,0 37,20 30,31 50,37 50,15 z M 960,6030 c 0,-11 9,-29 19,-39 17,-17 18,-22 6,-38 -14,-17 -14,-17 -15,5 0,12 -4,22 -8,22 -5,0 -16,6 -26,13 -16,12 -17,16 -5,35 17,27 29,28 29,2 z m 20,-109 c 0,-12 -39,-25 -48,-16 -7,7 17,25 36,25 6,0 12,-4 12,-9 z m 57,-555 c -4,-9 -11,-16 -17,-16 -11,0 -14,33 -3,43 11,11 26,-10 20,-27 z M 6854,3668 c 12,-13 31,-28 41,-34 16,-9 19,-24 21,-103 2,-91 2,-92 -24,-102 -21,-8 -29,-7 -39,7 -7,10 -13,22 -13,28 0,5 -7,17 -15,26 -16,18 -25,165 -11,188 10,17 15,15 40,-10 z m 740,-4 c 9,-8 16,-25 16,-36 0,-11 20,-47 45,-80 25,-33 45,-53 45,-44 0,31 20,16 45,-34 14,-27 25,-59 25,-71 0,-13 7,-30 16,-40 20,-23 30,-103 16,-132 -6,-12 -13,-44 -16,-71 -6,-48 -30,-91 -46,-81 -4,3 -11,17 -14,31 -4,14 -16,38 -26,53 -13,17 -23,52 -28,101 -6,67 -9,75 -29,78 -16,2 -23,11 -24,25 -1,17 -2,18 -6,5 -2,-10 -11,-18 -19,-18 -18,0 -31,50 -14,60 7,4 8,10 2,14 -5,3 -12,29 -16,57 -5,39 -12,52 -26,56 -22,6 -26,16 -34,88 -6,44 -5,48 7,33 19,-24 34,-23 42,2 8,24 18,25 39,4 z m -2366,-96 c 30,-30 -1,-73 -36,-51 -23,14 -25,29 -7,47 20,19 27,20 43,4 z m 2322,-118 c 0,-16 -4,-30 -9,-30 -12,0 -24,37 -16,50 12,20 25,10 25,-20 z m 98,-163 c 2,-18 -1,-27 -11,-27 -15,0 -30,37 -21,52 10,17 29,2 32,-25 z M 1923,2945 c 17,-24 17,-25 -4,-46 -25,-25 -39,-13 -39,32 0,45 16,50 43,14 z m -133,-174 c 15,-29 12,-41 -9,-41 -20,0 -37,32 -26,50 10,16 23,12 35,-9 z m 3060,-941 c 0,-4 -7,-10 -15,-14 -11,-4 -15,2 -15,21 0,21 2,24 15,13 8,-7 15,-16 15,-20 z m 70,-79 c 0,-20 8,-34 25,-45 23,-15 25,-22 25,-101 0,-47 -4,-85 -9,-85 -5,0 -11,5 -13,10 -2,6 -15,-3 -30,-20 -16,-19 -21,-30 -13,-30 21,0 27,-17 15,-41 -8,-14 -18,-19 -31,-16 -16,4 -18,1 -13,-18 3,-13 -1,-37 -10,-53 -9,-17 -16,-42 -16,-56 0,-14 -4,-28 -10,-31 -5,-3 -10,-15 -10,-26 0,-11 -11,-36 -24,-57 -13,-20 -32,-59 -42,-87 -21,-60 -56,-101 -100,-115 -18,-6 -35,-18 -38,-27 -5,-12 -16,-14 -49,-10 -49,7 -91,49 -101,101 -7,38 10,137 32,186 9,21 16,66 17,110 2,118 13,141 86,170 34,13 68,34 76,47 9,13 23,23 32,22 9,-1 29,3 44,9 16,7 33,12 38,12 5,0 9,9 9,20 0,10 8,24 19,29 10,6 21,24 25,41 6,35 42,90 57,90 5,0 9,-13 9,-29 z m -350,5 c 0,-2 3,-11 6,-20 5,-12 -1,-16 -23,-16 -36,0 -46,9 -32,27 10,12 49,19 49,9 z m 180,-22 c 0,-3 -5,-14 -10,-25 -13,-23 -36,-25 -44,-3 -11,28 -7,34 24,34 17,0 30,-3 30,-6 z m 710,-374 c 0,-27 -45,-49 -63,-31 -9,10 -7,16 12,32 30,25 51,24 51,-1 z m -140,-97 c 0,-14 -18,-17 -44,-7 -21,8 -20,31 2,43 18,11 42,-9 42,-36 z"
         id="path10053"
         style="fill:#00688f;fill-opacity:1" /><path
         d="m 4720,7373 c 55,-40 88,-75 94,-98 4,-14 11,-25 16,-25 15,0 12,15 -10,43 -11,14 -20,31 -20,39 0,7 -19,22 -43,32 -60,28 -65,29 -37,9 z"
         id="path10055"
         style="fill:#00688f;fill-opacity:1" /><path
         d="m 4892,7315 c 39,-27 48,-30 48,-17 0,8 -63,42 -78,42 -4,0 10,-11 30,-25 z"
         id="path10057"
         style="fill:#00688f;fill-opacity:1" /><path
         d="m 6188,6946 c 36,-39 67,-83 77,-113 21,-56 29,-67 45,-61 7,2 -1,27 -20,68 -18,36 -37,75 -43,88 -10,22 -91,82 -110,82 -5,0 18,-29 51,-64 z"
         id="path10059"
         style="fill:#00688f;fill-opacity:1" /><path
         d="m 7096,6307 c -11,-8 -17,-22 -14,-38 2,-20 10,-25 42,-29 43,-5 42,-4 82,-105 20,-49 44,-87 83,-127 56,-60 80,-74 60,-35 -15,28 -192,294 -216,325 -16,20 -21,21 -37,9 z"
         id="path10061"
         style="fill:#00688f;fill-opacity:1" /><path
         d="m 5721,6243 c -54,-10 -67,-55 -26,-93 24,-23 50,-21 27,2 -24,24 -13,48 30,65 35,14 38,18 22,24 -10,4 -21,7 -24,7 -3,0 -16,-3 -29,-5 z"
         id="path10063"
         style="fill:#00688f;fill-opacity:1" /><path
         d="m 4600,6079 c -47,-28 -140,-127 -140,-149 0,-9 9,-25 20,-35 12,-10 18,-25 16,-32 -4,-8 3,-13 18,-13 22,0 24,-3 19,-39 -5,-34 -2,-41 20,-56 15,-9 29,-25 32,-36 4,-10 14,-19 24,-19 10,0 24,-7 31,-15 7,-8 18,-15 26,-15 7,0 20,-7 29,-16 12,-12 13,-19 4,-30 -6,-7 -8,-18 -4,-24 12,-20 -18,-70 -42,-70 -28,0 -31,-32 -9,-85 12,-28 21,-35 42,-35 14,0 48,-16 74,-35 42,-31 49,-33 61,-19 7,8 25,22 40,29 24,13 28,12 45,-6 10,-11 21,-16 26,-11 10,10 0,42 -13,42 -5,0 -16,25 -25,56 -9,31 -27,65 -40,77 -26,22 -32,47 -11,47 6,1 0,8 -15,16 -19,10 -28,23 -28,39 0,22 4,25 35,25 19,0 35,2 35,5 0,11 -43,85 -47,81 -3,-2 1,-14 7,-26 16,-29 -2,-50 -28,-34 -21,14 -29,83 -10,96 9,7 4,8 -15,5 -23,-4 -31,1 -43,25 -8,16 -31,39 -50,50 -38,23 -44,44 -14,53 14,4 19,12 16,23 -7,22 35,43 59,30 9,-6 20,-7 23,-3 4,4 -1,11 -11,16 -13,8 -17,21 -15,50 1,27 -3,44 -13,50 -25,16 -93,10 -129,-12 z"
         id="path10065"
         style="fill:#00688f;fill-opacity:1" /><path
         d="m 3925,6039 c -27,-11 -59,-24 -70,-29 -11,-5 -33,-11 -49,-12 -16,-2 -31,-8 -33,-14 -4,-13 48,-34 83,-34 17,0 24,-6 24,-19 0,-16 -9,-20 -52,-24 -29,-2 -63,-8 -75,-12 -20,-6 -23,-4 -23,19 0,21 -5,26 -24,26 -33,0 -42,17 -20,41 19,21 13,33 -23,43 -16,5 -37,-7 -96,-59 -85,-74 -125,-130 -142,-195 -9,-37 -9,-50 4,-73 16,-28 17,-28 86,-22 45,4 80,13 97,26 48,34 198,21 304,-28 44,-20 64,-24 92,-18 21,4 56,7 78,6 52,-2 78,20 69,58 -9,36 -41,68 -81,81 -19,7 -34,15 -34,19 0,20 -71,78 -108,89 -46,14 -49,42 -5,42 23,0 25,3 19,31 -5,27 -3,32 24,42 28,11 36,28 14,33 -5,2 -31,-6 -59,-17 z"
         id="path10067"
         style="fill:#00688f;fill-opacity:1" /><path
         d="m 2634,5954 c -11,-34 -11,-35 17,-41 27,-5 29,-9 29,-55 0,-47 2,-50 35,-64 21,-8 45,-31 60,-54 14,-22 31,-40 39,-40 18,0 66,-49 66,-67 0,-25 -32,-28 -48,-5 -17,27 -38,28 -51,5 -7,-13 -5,-23 5,-34 13,-14 11,-19 -11,-43 -14,-15 -25,-33 -25,-40 0,-19 -25,-38 -62,-45 -24,-5 -34,-14 -43,-41 -16,-46 -41,-61 -61,-35 -8,11 -29,25 -47,31 -18,6 -39,23 -47,37 -13,24 -13,28 1,42 13,13 24,14 60,6 25,-6 54,-8 66,-5 11,3 24,1 27,-5 13,-20 26,-11 48,33 l 21,44 -25,44 c -23,38 -39,56 -93,108 -22,20 -58,74 -92,135 -19,35 -28,45 -31,33 -2,-10 -12,-18 -22,-18 -10,0 -46,-7 -81,-16 -41,-11 -79,-14 -114,-9 -62,7 -99,-7 -115,-44 -14,-34 -43,-53 -113,-74 -63,-20 -81,-40 -92,-99 -6,-29 -16,-43 -44,-59 -20,-12 -50,-35 -67,-51 -30,-28 -36,-30 -95,-25 -35,3 -77,8 -94,11 -22,5 -36,1 -54,-14 -22,-19 -22,-21 -7,-45 11,-16 35,-30 73,-41 55,-16 57,-16 132,10 142,49 269,56 307,18 13,-13 21,-13 48,-4 43,16 63,15 94,-4 25,-14 31,-14 65,1 21,8 40,22 44,30 8,22 33,18 33,-5 0,-13 7,-20 20,-20 11,0 20,-6 20,-13 0,-8 -9,-22 -20,-32 -24,-21 -26,-48 -5,-65 19,-16 19,-39 0,-46 -8,-4 -29,-26 -45,-51 -29,-43 -30,-47 -15,-69 8,-13 27,-31 41,-40 22,-15 30,-15 66,-3 37,12 44,11 86,-12 47,-25 53,-33 68,-83 7,-22 22,-36 54,-51 82,-40 132,-52 168,-43 36,10 45,26 56,101 l 7,48 77,-3 c 73,-3 78,-4 90,-30 11,-24 19,-28 57,-28 32,0 51,-7 75,-26 24,-21 37,-25 61,-20 21,4 46,-1 77,-16 60,-27 88,-27 189,2 l 82,23 38,-26 c 21,-14 52,-28 69,-32 29,-5 35,-2 72,45 33,41 40,57 36,80 -4,20 2,41 20,72 28,47 33,89 16,134 -8,21 -7,31 5,44 8,9 15,25 15,36 -1,18 -1,18 -14,2 -8,-11 -27,-18 -47,-18 -19,-1 -45,-7 -59,-15 -38,-22 -71,-18 -101,11 l -28,26 -35,-21 c -31,-19 -42,-21 -85,-13 -67,12 -100,6 -94,-18 6,-22 -7,-30 -52,-36 -38,-5 -50,14 -15,23 11,3 20,12 20,19 0,8 6,14 14,14 15,0 13,13 -14,87 -10,28 -16,32 -43,30 -41,-3 -47,24 -13,56 14,14 26,31 26,39 0,16 -19,38 -34,38 -6,0 -5,-5 2,-12 22,-22 14,-45 -18,-50 -16,-3 -30,-2 -30,1 2,26 28,101 39,115 23,27 2,38 -55,27 -56,-11 -120,-36 -129,-51 -3,-5 15,-32 40,-59 50,-53 56,-84 17,-89 -18,-3 -22,-10 -22,-38 0,-19 -5,-34 -11,-34 -16,0 -34,-23 -34,-44 0,-11 -6,-21 -12,-23 -7,-3 -13,2 -13,10 0,9 -10,24 -22,34 -31,25 -60,85 -52,106 6,17 21,22 57,19 10,-1 15,3 12,8 -3,6 -15,10 -25,10 -11,0 -27,12 -36,28 -9,15 -26,40 -36,55 -16,23 -19,42 -17,95 2,37 0,73 -4,79 -4,7 -47,31 -95,54 -104,51 -98,47 -84,61 17,17 15,49 -5,77 -15,22 -17,23 -29,6 -18,-24 -44,-12 -44,20 0,37 -23,30 -36,-11 z m -205,-172 c -5,-15 -12,-33 -14,-41 -4,-11 -8,-11 -20,-1 -21,18 -19,39 7,60 29,23 40,16 27,-18 z m -59,-94 c 0,-9 3,-9 12,0 22,22 27,12 21,-40 -3,-36 -11,-58 -24,-67 -11,-7 -19,-22 -19,-32 0,-10 -4,-20 -8,-23 -13,-8 -35,11 -27,24 4,7 1,10 -10,8 -30,-5 -27,18 9,65 20,26 30,47 24,49 -6,2 -8,10 -4,16 9,16 26,15 26,0 z m -232,-27 c -4,-20 -48,-28 -48,-9 0,20 20,37 37,31 8,-3 13,-13 11,-22 z m -70,-13 c -2,-15 -11,-24 -25,-26 -27,-4 -30,10 -7,32 22,23 36,20 32,-6 z m -83,-18 c 8,-13 -4,-50 -16,-50 -13,0 -22,27 -15,45 6,17 22,20 31,5 z m 70,-30 c 3,-6 -1,-13 -10,-16 -19,-8 -30,0 -20,15 8,14 22,14 30,1 z m 1195,-149 c 0,-11 -5,-23 -11,-27 -15,-9 -33,12 -26,30 9,23 37,20 37,-3 z m -70,-95 c 0,-8 -4,-17 -9,-21 -12,-7 -24,12 -16,25 9,15 25,12 25,-4 z m 98,-23 c -4,-22 -22,-20 -26,1 -2,10 3,16 13,16 10,0 15,-7 13,-17 z m 49,-26 c -6,-20 -27,-19 -27,2 0,14 5,19 15,14 9,-3 14,-10 12,-16 z m -692,3 c 3,-6 -1,-13 -10,-16 -19,-8 -30,0 -20,15 8,14 22,14 30,1 z m 1159,-38 c 2,-4 -10,-20 -27,-34 -114,-98 -119,-101 -137,-69 -17,33 -13,71 9,71 10,0 21,7 25,15 4,10 14,13 34,9 17,-4 32,-1 36,5 8,12 52,15 60,3 z m -536,-18 c 7,-2 12,-14 10,-26 -3,-24 -12,-26 -108,-19 -19,2 -45,0 -57,-4 -25,-8 -28,0 -14,37 8,22 13,24 82,20 41,-2 80,-5 87,-8 z"
         id="path10069"
         style="fill:#00688f;fill-opacity:1" /><path
         d="m 3382,5634 c -13,-9 -35,-20 -50,-25 -20,-6 -14,-7 23,-3 71,7 85,13 78,30 -7,18 -23,18 -51,-2 z"
         id="path10071"
         style="fill:#00688f;fill-opacity:1" /><path
         d="m 2218,3713 c -22,-6 -24,-55 -4,-73 8,-6 13,-17 11,-23 -3,-7 0,-19 5,-27 8,-13 14,-12 47,5 45,24 52,47 19,64 -13,7 -29,24 -35,37 -11,24 -13,25 -43,17 z"
         id="path10073"
         style="fill:#00688f;fill-opacity:1" /><path
         d="m 3622,2556 c -43,-15 -58,-40 -43,-73 6,-13 11,-37 11,-53 0,-42 24,-62 66,-54 25,5 35,2 40,-9 5,-14 8,-13 23,2 12,12 16,28 13,52 -2,20 3,52 12,72 8,21 13,44 10,51 -10,27 -76,33 -132,12 z"
         id="path10075"
         style="fill:#00688f;fill-opacity:1" /></g><path
       style="mix-blend-mode:normal;fill:#00688f;fill-opacity:1;stroke-width:0.25841;filter:url(#filter3)"
       d="m 137.71321,488.40369 h 61.38068"
       id="path10830" /><path
       id="path5425"
       style="mix-blend-mode:normal;fill:#00688f;stroke-width:0.312006;filter:url(#filter4)"
       d="m 193.31814,437.07847 c 0,28.08966 -14.87585,36.64828 -30.08698,36.64828 -15.21112,0 -30.08707,-8.55862 -30.08707,-36.64828 0,-12.78109 10.08637,-31.75569 16.87588,-45.53038 8.13217,-16.49871 13.21119,-30.72079 13.21119,-30.72079 0,0 5.48222,14.76499 13.81095,32.0025 6.48043,13.41217 16.27603,31.95674 16.27603,44.24867 z" /></g></svg>
