<?xml version="1.0" encoding="UTF-8" standalone="no"?>
<!-- Created with Inkscape (http://www.inkscape.org/) -->

<svg
   width="260mm"
   height="400mm"
   viewBox="0 0 260 400"
   version="1.1"
   id="svg5"
   inkscape:version="1.2.2 (1:1.2.2+202212051550+b0a8486541)"
   sodipodi:docname="px-logo-bull-flapless-1280.inkscape.svg"
   xml:space="preserve"
   inkscape:export-filename="px-logo-flapless-narrow-blur-1280.png"
   inkscape:export-xdpi="65.024002"
   inkscape:export-ydpi="65.024002"
   xmlns:inkscape="http://www.inkscape.org/namespaces/inkscape"
   xmlns:sodipodi="http://sodipodi.sourceforge.net/DTD/sodipodi-0.dtd"
   xmlns="http://www.w3.org/2000/svg"
   xmlns:svg="http://www.w3.org/2000/svg"><sodipodi:namedview
     id="namedview7"
     pagecolor="#ffffff"
     bordercolor="#000000"
     borderopacity="0.25"
     inkscape:showpageshadow="2"
     inkscape:pageopacity="0.0"
     inkscape:pagecheckerboard="0"
     inkscape:deskcolor="#d1d1d1"
     inkscape:document-units="mm"
     showgrid="false"
     inkscape:zoom="0.84527181"
     inkscape:cx="542.42907"
     inkscape:cy="831.09361"
     inkscape:window-width="1920"
     inkscape:window-height="2089"
     inkscape:window-x="0"
     inkscape:window-y="34"
     inkscape:window-maximized="0"
     inkscape:current-layer="layer1" /><defs
     id="defs2"><clipPath
       clipPathUnits="userSpaceOnUse"
       id="clipPath12506"><path
         id="path12508"
         style="fill:#ff0000;fill-opacity:1;fill-rule:nonzero;stroke:none;stroke-width:0.275693"
         d="M 48.986163,68.48742 V 201.81313 H 150.27222 V 68.48742 Z m 65.980527,1.170469 h 5.8e-4 c 8.6e-4,-1.09e-4 0.002,5e-5 0.003,0 0.007,-2.65e-4 0.0162,0.0013 0.0258,0.0052 0.0252,0.0099 0.051,0.01805 0.0769,0.02635 0.007,0.0021 0.0138,0.0041 0.0208,0.0062 0.005,-0.0046 0.006,-0.01138 0.0151,-0.01188 0.006,-2.65e-4 0.0141,5.29e-4 0.0224,0.0031 0.0256,0.0075 0.0515,0.01484 0.0769,0.02326 0.0201,0.0066 0.0295,0.0098 0.0494,0.01707 0.0559,0.02003 0.11357,0.03614 0.17057,0.05323 0.0313,0.0096 0.0621,0.01992 0.0931,0.02997 0.0181,0.0059 0.0214,0.01471 0.023,0.02273 8.6e-4,5.29e-4 0.003,5.29e-4 0.004,0.0011 0.0109,0.0035 0.0216,0.0074 0.0325,0.01035 0.0138,0.0038 0.0275,0.0072 0.0415,0.01035 0.0125,0.0027 0.0252,0.0042 0.0382,0.0052 0.0123,0.0013 0.025,0.0028 0.037,0.0052 0.007,0.0013 0.0126,0.0039 0.0191,0.0062 0.0218,0.0076 0.0246,0.02093 0.0241,0.03204 0.003,2.54e-4 0.007,2.65e-4 0.0101,5.29e-4 0.009,2.65e-4 0.0188,5.3e-4 0.0275,5.3e-4 0.0101,-5.3e-4 0.02,0.0011 0.0297,0.0026 0.008,7.94e-4 0.0171,0.0021 0.0247,0.0041 0.007,0.0016 0.0132,0.0037 0.0208,0.0052 0.01,0.0029 0.0205,0.0045 0.0303,0.0067 0.0126,0.0024 0.0252,0.0053 0.0376,0.0083 0.0172,0.0038 0.0344,0.0064 0.0516,0.0098 0.0184,0.0034 0.0366,0.0072 0.055,0.01035 0.0105,0.0021 0.0206,0.0043 0.0314,0.0062 0.0547,0.01003 0.0435,0.06127 -0.0112,0.05116 -0.0102,-0.0019 -0.0205,-0.0041 -0.0303,-0.0062 -0.0189,-0.0032 -0.0378,-0.0074 -0.0567,-0.01085 -0.0181,-0.0037 -0.0364,-0.0061 -0.0544,-0.01035 -0.0117,-0.0029 -0.0234,-0.0056 -0.0354,-0.0078 -0.01,-0.0021 -0.0205,-0.0038 -0.0303,-0.0067 -0.008,-0.0016 -0.0154,-0.0038 -0.023,-0.0057 -0.006,-0.0019 -0.0131,-0.0021 -0.0185,-0.0031 -0.007,-0.0011 -0.0143,-0.0026 -0.0219,-0.0021 -0.01,-7.7e-5 -0.02,-1.59e-4 -0.0297,-5.29e-4 -0.0117,-5.29e-4 -0.0232,-0.0011 -0.0348,-0.0026 -0.016,-0.0021 -0.0317,-0.0045 -0.0477,-0.0067 -0.004,-5.29e-4 -0.008,-0.0011 -0.0112,-0.0016 -0.006,0.0057 -0.0104,0.01278 -0.0275,0.01138 -0.0146,-0.0013 -0.0292,-0.0028 -0.0432,-0.0067 -0.0167,-0.0051 -0.0326,-0.01175 -0.0477,-0.02016 -0.016,-0.009 -0.0314,-0.0185 -0.0471,-0.0279 -0.0193,-0.01191 -0.0393,-0.02328 -0.06,-0.03307 -0.006,-0.0028 -0.021,-0.0098 -0.0275,-0.01241 -0.0214,-0.009 -0.0429,-0.01693 -0.0645,-0.02532 -0.0281,-0.01082 -0.0561,-0.0223 -0.0836,-0.03462 -0.0124,-0.0052 -0.0251,-0.01011 -0.0376,-0.01498 -0.002,-7.93e-4 -0.003,-0.0013 -0.005,-0.0021 -0.002,-7.94e-4 -0.005,-0.0013 -0.007,-0.0021 -0.019,-0.0048 -0.0382,-0.0088 -0.0572,-0.01344 -0.009,-0.0021 -0.0182,-0.0041 -0.0269,-0.0062 -0.0221,-0.0053 -0.0434,-0.0122 -0.0651,-0.0186 -0.027,-0.0086 -0.054,-0.01754 -0.0802,-0.02791 -0.0403,-0.01593 -0.0357,-0.04924 -0.007,-0.05271 z m 0.83992,0.106455 c 0.006,-2.65e-4 0.0142,5.29e-4 0.0224,0.0031 0.005,0.0016 0.01,0.0033 0.014,0.0047 0.0249,0.0072 0.0499,0.0136 0.0746,0.02119 0.0276,0.0085 0.0381,0.0123 0.0662,0.0217 0.0365,0.01257 0.072,0.02729 0.10773,0.04134 0.007,0.0011 0.0138,0.0021 0.0208,0.0031 0.0598,0.0084 0.1197,0.01622 0.17954,0.02429 -0.0183,-0.01725 -0.009,-0.03947 0.0163,-0.04083 0.007,-2.64e-4 0.0162,7.94e-4 0.0258,0.0047 0.0514,0.01995 0.10242,0.0403 0.15486,0.05788 0.0128,0.0043 0.0259,0.0083 0.0387,0.01241 -0.002,-0.01225 0.004,-0.02312 0.018,-0.02479 0.009,-0.0011 0.0193,0.0013 0.0314,0.0078 0.007,0.0039 0.0149,0.0078 0.0224,0.01188 0.0393,0.02159 0.0326,0.01879 0.0763,0.04134 0.002,0.0011 0.006,0.0029 0.009,0.0047 8.6e-4,-0.01029 0.0106,-0.01918 0.0269,-0.01963 0.006,-1.8e-4 0.0136,0.0011 0.0219,0.0036 0.013,0.0043 0.0263,0.0085 0.0393,0.01291 0.0217,0.0073 0.0431,0.01527 0.0645,0.02326 0.003,-0.0081 0.007,-0.01593 0.0191,-0.01654 0.008,-5.29e-4 0.0186,0.0021 0.0297,0.0083 0.005,0.0029 0.0103,0.0057 0.0157,0.0088 0.0267,0.01566 0.0523,0.0325 0.0786,0.04857 0.0205,0.01254 0.0412,0.02522 0.0617,0.03772 0.009,0.0058 0.0181,0.01167 0.0275,0.01757 0.002,0.0011 -0.001,0.0021 0.002,0.0031 0.0381,0.02061 0.0753,0.04245 0.1111,0.06615 v 0.0026 c 0.005,0.003 0.007,0.0062 0.0101,0.0093 0.0167,0.0034 0.0337,0.0074 0.0505,0.01085 8.6e-4,-2.65e-4 0.001,-0.0031 0.003,-0.0031 0.004,-1.16e-4 0.008,0.0046 0.0135,0.0062 0.012,0.0026 0.0239,0.0066 0.0359,0.0093 0.0314,0.0069 0.0395,0.02582 0.0303,0.03876 0.003,0.0021 0.003,0.0031 0.007,0.0062 -0.0137,-0.202453 0.1356,-0.380587 0.43652,-0.394808 v -5.29e-4 h 0.001 5.7e-4 5.8e-4 5.7e-4 5.7e-4 c 0.11027,-0.005 0.2386,0.01193 0.38322,0.05684 0.16318,0.05067 0.32881,0.09278 0.49711,0.126092 0.10104,0.01992 0.20342,0.03166 0.30634,0.03876 0.0974,0.0088 0.19607,0.0029 0.29344,0.0088 0.0424,0.0026 0.0846,0.0082 0.12681,0.01188 0.1852,0.02003 0.36584,0.05915 0.54705,0.09819 0.0367,0.0089 0.0742,0.01669 0.11053,0.02687 0.12572,0.03519 0.12707,0.04106 0.24238,0.07803 0.0369,0.01183 0.0742,0.02252 0.11165,0.03307 0.006,8e-6 0.0116,0 0.0174,0 0.0599,5.6e-5 0.11971,1.9e-5 0.17954,0 -0.0902,-0.141819 -5.8e-4,-0.29637 0.20534,-0.302305 h 5.8e-4 c 0.0618,-0.0016 0.13337,0.01032 0.21321,0.03979 0.14024,0.05182 0.28439,0.09271 0.42978,0.130223 0.18833,0.04434 0.37912,0.07847 0.56669,0.125574 0.20547,0.05495 0.39884,0.141853 0.58688,0.234611 0.13635,0.07045 0.27097,0.144103 0.4051,0.218075 0.0708,0.03904 0.1197,0.08206 0.15373,0.12609 0.0568,0.02013 0.11325,0.04094 0.16944,0.06253 0.0138,0.005 0.0273,0.0104 0.041,0.0155 0.0317,-0.0083 0.0637,-0.01654 0.10268,-0.0181 -0.0284,-0.02807 -0.0592,-0.05398 -0.087,-0.08268 -0.0688,-0.07119 -0.0389,-0.136353 0.0191,-0.141076 h 5.8e-4 c 0.002,-7.4e-5 0.004,0 0.006,0 0.0284,2.9e-5 0.0628,0.01397 0.0954,0.04754 0.0682,0.07037 0.14161,0.135766 0.21377,0.202573 0.0559,0.01037 0.11139,0.02249 0.16664,0.03514 0.10045,0.02561 0.20385,0.03925 0.30579,0.05839 0.12342,0.024 0.24137,0.06512 0.36021,0.102835 0.11232,0.03298 0.22553,0.06288 0.33664,0.0987 0.0171,0.0057 0.0344,0.01066 0.0516,0.01601 0.0359,0.0071 0.0718,0.01429 0.10772,0.02119 0.0337,0.0061 0.0673,0.01251 0.101,0.0186 0.12133,0.02193 0.20678,0.06627 0.25921,0.119372 0.0261,0.0094 0.052,0.01939 0.078,0.02894 0.12962,0.04684 0.25003,0.111451 0.36694,0.180351 0.1019,0.05788 0.20272,0.116845 0.30186,0.1788 0.1057,0.06858 0.20967,0.139528 0.31981,0.202057 0.11917,0.07114 0.2486,0.124481 0.37817,0.176731 0.12084,0.04787 0.24953,0.07251 0.37535,0.105939 0.0709,0.02109 0.14091,0.04456 0.21209,0.0646 0.0154,0.0043 0.10772,0.02838 0.12063,0.03255 0.0313,0.01024 0.0617,0.02233 0.0926,0.03359 0.14994,0.05883 0.28885,0.137168 0.42305,0.221694 0.13256,0.08824 0.25706,0.186026 0.38826,0.27595 0.10714,0.07982 0.22481,0.134636 0.35011,0.185002 0.12849,0.04043 0.26293,0.05784 0.39443,0.08733 0.17069,0.0433 0.33983,0.09209 0.51002,0.136943 0.14576,0.02918 0.28568,0.07642 0.42698,0.119372 0.14092,0.04004 0.26775,0.107971 0.38994,0.182417 0.092,0.0569 0.17632,0.122671 0.26483,0.18397 0.0465,0.03222 0.11198,0.07506 0.15878,0.105936 0.13832,0.09204 0.2765,0.184476 0.41407,0.277503 0.096,0.02941 0.1897,0.06496 0.28054,0.106971 0.13149,0.05949 0.24934,0.139674 0.36133,0.225825 0.0691,0.05551 0.13077,0.117335 0.19133,0.180351 0.0834,0.04928 0.16885,0.09566 0.25024,0.147793 0.14368,0.09061 0.27564,0.194964 0.40565,0.301276 0.0568,0.04957 0.11687,0.09521 0.17786,0.140041 0.13061,0.0633 0.26142,0.126492 0.39219,0.189654 0.38375,0.183335 0.77047,0.361748 1.15357,0.546219 0.15437,0.07434 0.22239,0.172185 0.23228,0.259934 0.0955,0.05129 0.19063,0.103386 0.28559,0.155546 0.17998,0.09994 0.36089,0.198763 0.54087,0.298688 0.17082,0.09484 0.22903,0.214165 0.21377,0.309542 0.0408,0.02736 0.0817,0.05469 0.12232,0.08217 0.0759,0.05123 0.15063,0.103719 0.22555,0.156064 0.0814,-0.0019 0.17965,0.0268 0.2839,0.0987 0.17799,0.122793 0.36353,0.236103 0.54985,0.347781 0.28492,0.163121 0.55282,0.348782 0.81637,0.539504 0.15545,0.113435 0.30774,0.230738 0.45951,0.348298 0.0904,0.07006 0.13575,0.14161 0.15374,0.207224 0.0643,0.06117 0.12645,0.124415 0.18796,0.1881 0.14454,0.150392 0.27804,0.309597 0.39499,0.479041 0.008,0.01262 0.0152,0.02556 0.023,0.03824 0.23503,0.183785 0.47131,0.36618 0.71424,0.541051 0.19257,0.135065 0.38579,0.269643 0.57398,0.409795 0.18408,0.13466 0.36012,0.277135 0.5319,0.424781 0.12691,0.110691 0.25152,0.224533 0.36414,0.347781 0.11879,0.133964 0.24032,0.265261 0.35235,0.404112 0.0458,0.06062 0.0982,0.116411 0.14868,0.173632 0.0775,0.06922 0.1501,0.143058 0.22219,0.217041 0.0719,0.07377 0.1054,0.144692 0.11895,0.20929 0.002,0.0029 0.002,0.0021 0.004,0.0057 0.0782,0.09928 0.10259,0.190185 0.0971,0.265099 0.0239,0.01701 0.0388,0.03015 0.0623,0.05013 0.33079,0.2832 0.0797,0.585044 -0.24014,0.409792 -0.19118,0.11199 -0.50015,0.08063 -0.79392,-0.214974 -0.0387,-0.03884 -0.083,-0.07254 -0.12568,-0.107487 -0.0102,-0.0074 -0.0221,-0.0131 -0.0309,-0.0217 -0.003,-0.0024 0.0145,0.005 0.0112,0.0031 -0.0442,-0.02522 -0.0905,-0.04526 -0.1369,-0.06666 -0.0831,-0.03226 -0.16345,-0.07049 -0.24463,-0.106971 -0.18973,0.156051 -0.54501,0.132474 -0.85676,-0.227893 -0.009,-0.01032 -0.0182,-0.02069 -0.0269,-0.031 -0.0959,-0.103103 -0.18357,-0.212471 -0.26988,-0.322461 -0.0995,-0.13426 0.10651,0.141951 -0.0808,-0.102838 -0.0474,-0.06193 -0.0867,-0.1289 -0.13352,-0.191202 -0.009,-0.01323 -0.0192,-0.02609 -0.0286,-0.03927 -0.0447,-0.04221 -0.0907,-0.08317 -0.13633,-0.12454 -0.029,-0.02847 -0.0591,-0.05589 -0.087,-0.08527 -0.0884,-0.09309 -0.15524,-0.201356 -0.23452,-0.300757 -0.0223,-0.03312 -0.0402,-0.06856 -0.0612,-0.10232 -0.0951,-0.08399 -0.19859,-0.159673 -0.294,-0.243395 -0.16816,-0.122685 -0.3302,-0.253392 -0.51114,-0.360186 -0.0487,-0.02825 -0.0958,-0.05931 -0.14532,-0.0863 -0.0926,-0.05045 -0.1926,-0.08883 -0.2839,-0.141594 -0.12872,-0.06888 -0.24825,-0.149021 -0.36863,-0.229441 -0.143,-0.08219 -0.28744,-0.16341 -0.43483,-0.238747 -0.21141,-0.101272 -0.42594,-0.196628 -0.64748,-0.278019 -0.20702,-0.08386 -0.41275,-0.170593 -0.61886,-0.256315 -0.12051,-0.04334 -0.238,-0.09337 -0.36919,-0.100769 -0.20185,-0.0318 -0.40039,-0.08038 -0.58183,-0.170532 -0.21642,-0.113721 -0.41669,-0.25073 -0.59474,-0.411861 -0.085,-0.07466 -0.17245,-0.149813 -0.25192,-0.229442 -0.0934,-0.09356 -0.0622,-0.06845 -0.1268,-0.144695 -0.0232,-0.02746 -0.047,-0.05453 -0.0707,-0.08165 -0.10369,-0.134001 -0.20258,-0.272214 -0.2738,-0.423749 -0.0797,-0.165367 -0.14822,-0.33456 -0.22443,-0.501261 -0.0199,-0.0438 -0.0374,-0.08725 -0.064,-0.128156 -0.0701,-0.108048 -0.16606,-0.199395 -0.25978,-0.289906 -0.13306,-0.109006 -0.26651,-0.217096 -0.42529,-0.294037 -0.11489,-0.06673 -0.23137,-0.13157 -0.35011,-0.192239 -0.12423,-0.04413 -0.24918,-0.08882 -0.36302,-0.153479 -0.1263,-0.06709 -0.23733,-0.146246 -0.34842,-0.232542 -0.0623,-0.04999 -0.13145,-0.09085 -0.20255,-0.129191 -0.12604,-0.05466 -0.25383,-0.105341 -0.38209,-0.155546 -0.16703,-0.07183 -0.33344,-0.144481 -0.49823,-0.22066 -0.24388,-0.092 -0.49362,-0.168439 -0.73726,-0.260964 -0.37587,-0.144211 -0.74675,-0.301543 -1.11934,-0.453202 -0.39911,-0.176154 -0.79307,-0.361585 -1.17993,-0.559657 -0.20576,-0.113395 -0.41324,-0.225547 -0.60877,-0.353467 -0.13419,-0.09026 -0.26175,-0.187789 -0.38602,-0.289389 -0.0843,-0.06543 -0.17005,-0.129566 -0.25753,-0.191201 -0.10049,-0.06088 -0.19545,-0.128365 -0.29681,-0.187587 -0.10878,-0.04191 -0.21778,-0.08327 -0.3271,-0.124023 -0.0848,-0.03458 -0.16812,-0.07199 -0.25136,-0.109553 -0.29138,-0.07614 -0.57451,-0.17417 -0.86462,-0.254249 -0.32469,-0.08559 -0.64718,-0.178427 -0.96785,-0.275953 -0.20919,-0.06698 -0.42118,-0.126415 -0.63345,-0.184483 -0.18135,-0.05434 -0.36216,-0.110871 -0.54424,-0.162782 -0.14932,-0.04243 -0.29717,-0.08787 -0.44213,-0.141592 -0.12974,-0.04842 -0.25342,-0.107445 -0.36301,-0.188619 0.0293,0.01302 0.008,0.0039 -0.0393,-0.02532 -0.005,-0.0032 -0.009,-0.0059 -0.0146,-0.0093 -0.0183,-0.01082 -0.0367,-0.02175 -0.055,-0.03256 -0.0416,-0.02519 -0.0549,-0.0204 -0.037,-0.02585 -0.0753,-0.03863 -0.15172,-0.07289 -0.23565,-0.09457 -0.1571,-0.04694 -0.31333,-0.09554 -0.4713,-0.140044 -0.005,-0.0016 -0.0109,-0.0034 -0.0163,-0.0052 -0.0406,-1.56e-4 -0.0812,-5.29e-4 -0.12176,-0.0011 -0.0974,-7.94e-4 -0.19504,-0.0026 -0.29231,-0.0062 -0.14545,-0.0057 -0.2908,-0.01431 -0.4354,-0.02997 -0.18886,-0.0218 -0.37706,-0.04886 -0.56163,-0.0925 -0.18163,-0.04296 -0.31163,-0.112276 -0.40846,-0.190686 -0.17859,-0.0364 -0.35541,-0.07902 -0.52853,-0.133842 -0.18482,-0.05854 -0.31525,-0.140901 -0.40566,-0.232029 -0.009,-0.0032 -0.0172,-0.0067 -0.0258,-0.01035 -0.013,-0.0052 -0.0263,-0.01061 -0.0376,-0.0186 -0.009,-0.0065 -0.0176,-0.0132 -0.0252,-0.02066 -0.007,-0.0067 -0.0132,-0.01323 -0.0208,-0.01913 -0.012,-0.0097 -0.0239,-0.01924 -0.0359,-0.02894 -0.009,-0.0075 -0.0177,-0.01648 -0.0264,-0.02479 -2.9e-4,-1.56e-4 -8.6e-4,-1.59e-4 -0.001,-5.29e-4 -0.007,-0.0029 -0.0143,-0.0059 -0.0208,-0.0088 -0.008,-0.0027 -0.0148,-0.0056 -0.0224,-0.0078 -0.008,-0.0024 -0.0165,-0.0052 -0.0241,-0.0078 -0.007,-0.0016 -0.0137,-0.0026 -0.0202,-0.0041 -0.005,-0.0013 -0.0103,-0.0021 -0.0157,-0.0036 -0.002,-7.94e-4 -0.004,-0.0016 -0.006,-0.0026 -0.007,-0.0027 -0.0126,-0.0061 -0.0191,-0.0093 -0.007,-0.0031 -0.0131,-0.0067 -0.0196,-0.01035 -0.007,-0.004 -0.0131,-0.0091 -0.0185,-0.01447 -0.003,-0.0029 -0.005,-0.0054 -0.008,-0.0083 -8.6e-4,-0.0011 10e-4,-0.0016 -0.002,-0.0021 -1.4e-4,-2.59e-4 -10e-4,-7.94e-4 -0.002,-0.0016 -0.007,-0.0055 -0.0131,-0.01162 -0.0185,-0.0181 -0.005,-0.0061 -0.0109,-0.0105 -0.0174,-0.01498 -0.008,-0.0062 -0.0188,-0.0097 -0.0286,-0.01344 -0.012,-0.0043 -0.0248,-0.0071 -0.037,-0.01085 -0.0111,-0.0035 -0.0218,-0.0069 -0.0331,-0.0098 -0.0114,-0.003 -0.023,-0.0061 -0.0342,-0.0098 -0.008,-0.0024 -0.016,-0.0049 -0.0236,-0.0072 -0.01,-0.0021 -0.0188,-0.0057 -0.0275,-0.0093 -0.007,-0.0033 -0.0143,-0.0054 -0.0208,-0.0083 -0.003,-0.0016 -0.008,-0.0036 -0.0112,-0.0052 -0.002,-5.29e-4 -0.003,-0.0011 -0.004,-0.0016 -0.005,-0.0021 -0.006,-0.0024 -0.0101,-0.0041 -0.004,-0.0016 -0.008,-0.0027 -0.0112,-0.0041 -0.007,-0.0027 -0.0148,-0.0052 -0.0224,-0.0072 -0.007,-0.0019 -0.0142,-0.005 -0.0208,-0.0072 -0.003,-7.94e-4 -0.004,-0.0011 -0.004,-0.0011 -8.6e-4,-2.64e-4 -0.003,-0.0013 -0.007,-0.0026 -0.0104,-0.0033 -0.02,-0.0072 -0.0309,-0.01035 -0.0103,-0.0035 -0.0211,-0.0057 -0.032,-0.0083 -0.0111,-0.0024 -0.0219,-0.0046 -0.0331,-0.0067 -0.0125,-0.0024 -0.0144,-0.0091 -0.0202,-0.01447 -8.6e-4,-2.41e-4 -0.002,-7.94e-4 -0.003,-0.0011 -0.0114,-0.0021 -0.0223,-0.0051 -0.0337,-0.0072 -0.0102,-0.0019 -0.02,-0.003 -0.0309,-0.0036 -0.0121,-0.0011 -0.0241,-0.003 -0.0359,-0.0052 -0.013,-0.0024 -0.0255,-0.0073 -0.0382,-0.01138 -0.014,-0.0048 -0.0269,-0.01204 -0.0393,-0.01963 -0.007,-0.0035 -0.012,-0.008 -0.0185,-0.01085 -0.006,-0.0027 -0.012,-0.0045 -0.0185,-0.0067 -0.006,-0.0016 -0.0109,-0.0035 -0.0174,-0.0047 -0.007,-0.0013 -0.0148,-0.0019 -0.0224,-0.0021 -0.01,-2.65e-4 -0.0189,-5.29e-4 -0.0286,-5.29e-4 -0.0101,5.29e-4 -0.0205,-0.0013 -0.0303,-0.0026 -0.0119,-0.0019 -0.0236,-0.0038 -0.0353,-0.0062 -0.01,-0.0024 -0.0205,-0.0041 -0.0303,-0.0062 -0.0109,-0.0013 -0.0211,-0.0059 -0.0309,-0.0093 -0.003,-0.0011 -0.007,-0.0019 -0.0106,-0.0031 -2.9e-4,-1.09e-4 -8.7e-4,1.03e-4 -0.001,0 -0.0217,-0.0037 -0.0269,-0.0051 -0.0482,-0.0093 -0.0243,-0.0047 -0.048,-0.0093 -0.0724,-0.01344 h -5.8e-4 c -0.0497,-0.0084 -0.0435,-0.05122 -0.002,-0.05219 0.004,-9.8e-5 0.009,0.0019 0.014,0.0026 0.0105,0.0019 0.0209,0.0042 0.0314,0.0062 2.9e-4,6.9e-5 8.6e-4,-6.9e-5 0.001,0 8.6e-4,-4.2e-5 0.002,0 0.003,0 0.004,5e-6 0.009,5.29e-4 0.014,0.0016 0.008,0.0016 0.004,7.94e-4 0.0129,0.0021 0.0135,0.0021 0.0271,0.0035 0.0404,0.0067 0.008,0.0021 0.0158,0.0043 0.0236,0.0067 0.008,0.0013 0.0154,0.0024 0.023,0.0036 0.003,-7.94e-4 0.006,-0.0016 0.009,-0.0021 0.003,-2.62e-4 0.007,-6.6e-5 0.0101,0 8.6e-4,3.2e-5 0.003,-2.9e-5 0.004,0 -0.0207,-0.0085 -0.0412,-0.01701 -0.0617,-0.02585 -0.007,0.0078 -0.0217,0.01238 -0.0421,0.0083 -0.0147,-0.0031 -0.0294,-0.0052 -0.0443,-0.0072 -0.0187,-0.0021 -0.0372,-0.0047 -0.0561,-0.0047 -0.0421,1.29e-4 -0.0527,-0.02923 -0.0314,-0.04392 -0.0144,-0.0016 -0.0288,-0.004 -0.0432,-0.0057 -0.0123,-0.0013 -0.0249,-0.0016 -0.037,-0.0031 -0.008,-0.0011 -0.0161,-0.0021 -0.0247,-0.0031 -0.0344,-0.0038 -0.0365,-0.02196 -0.0258,-0.03617 -0.008,-0.0013 -0.017,-0.0027 -0.0252,-0.0041 -0.0257,-0.0044 -0.0595,-0.01021 -0.0853,-0.01551 -0.008,-0.0016 -0.017,-0.0038 -0.0252,-0.0057 h -5.7e-4 c -0.0411,-0.0097 -0.042,-0.04107 -0.0157,-0.04961 -0.0333,-0.01574 -0.0312,-0.04602 5.8e-4,-0.04754 z m 0.70247,0.20257 c -0.005,0.0044 -0.004,0.01122 -0.0135,0.01241 0.0289,0.01228 0.0581,0.02381 0.087,0.03617 0.002,-0.0031 0.003,-0.0069 0.009,-0.0072 0.006,-5.29e-4 0.0135,-3e-6 0.0219,0.0026 0.0477,0.01302 0.0234,0.0061 0.0735,0.02066 0.0231,0.007 0.0464,0.01408 0.0696,0.02119 -0.0161,-0.0076 -0.0418,-0.02066 -0.0668,-0.03307 -0.0606,-0.01635 -0.12088,-0.03377 -0.18066,-0.05271 z m 0.57959,0.226343 c 0.003,0.0013 0.005,0.0028 0.008,0.0041 -8.6e-4,-0.0011 -0.003,-0.0021 -0.004,-0.0031 -8.6e-4,-2.64e-4 -0.002,-7.94e-4 -0.003,-0.0011 z m 17.28217,7.389215 c 0.0161,0.01958 0.0328,0.03781 0.0578,0.06149 0.0586,0.05545 0.12056,0.108617 0.18179,0.161748 0.12013,0.106172 0.24945,0.204983 0.39668,0.2775 0.0825,0.03672 0.17212,0.05477 0.26202,0.0677 0.0905,0.008 0.17816,0.02685 0.26427,0.05064 -0.0237,-0.01397 -0.0473,-0.02804 -0.0707,-0.04238 -0.15011,-0.08383 -0.30142,-0.166172 -0.4483,-0.254765 -0.12508,-0.06842 -0.25,-0.137684 -0.3776,-0.202054 -0.0888,-0.03973 -0.17743,-0.07972 -0.26595,-0.119888 z" /></clipPath><filter
       inkscape:collect="always"
       style="color-interpolation-filters:sRGB"
       id="filter1099"
       x="-2.1270995"
       y="-2.1271198"
       width="5.2541991"
       height="5.2542397"><feGaussianBlur
         inkscape:collect="always"
         stdDeviation="0.27869701"
         id="feGaussianBlur1101" /></filter></defs><g
     inkscape:label="Layer 1"
     inkscape:groupmode="layer"
     id="layer1"
     transform="translate(-64.086925,-131.37389)"><path
       id="path1497"
       clip-path="url(#clipPath12506)"
       style="font-style:normal;font-variant:normal;font-weight:normal;font-stretch:normal;font-size:211.667px;font-family:'Gentium Book Basic';-inkscape-font-specification:'Gentium Book Basic';white-space:pre;inline-size:129.143;display:inline;mix-blend-mode:normal;fill:#00688f;fill-opacity:1;stroke-width:0.264583"
       d="m 117.00793,70.055907 c 0.003,0.0014 0.006,0.0032 0.008,0.0051 0.002,0.0017 0.005,0.0036 0.007,0.0052 7.4e-4,-0.0021 -0.002,-0.0056 0,-0.0071 -0.005,-9.55e-4 -0.01,-0.0022 -0.015,-0.0032 z"
       transform="matrix(2.7241137,0,0,3.2088568,-103.00111,-82.571935)" /><path
       id="path9982"
       clip-path="url(#clipPath12506)"
       style="font-style:normal;font-variant:normal;font-weight:normal;font-stretch:normal;font-size:211.667px;font-family:'Gentium Book Basic';-inkscape-font-specification:'Gentium Book Basic';white-space:pre;inline-size:129.143;display:inline;mix-blend-mode:normal;fill:#00688f;fill-opacity:1;stroke-width:0.264583"
       d="m 116.14544,69.947841 c 0.001,7.05e-4 0.003,0.0014 0.004,0.0021 0.002,0.0011 7.5e-4,0.0021 0.002,0.0032 0.0475,0.0075 0.0947,0.01551 0.14203,0.02317 0.033,0.0052 0.0661,0.0087 0.0993,0.01254 -0.0107,-0.0016 -0.0213,-0.0032 -0.032,-0.0048 -0.027,-0.0039 -0.0498,-0.0065 -0.0769,-0.01079 -0.0134,-0.0021 -0.0265,-0.0046 -0.0398,-0.0068 -0.0329,-0.006 -0.0657,-0.0121 -0.0986,-0.01857 z"
       transform="matrix(2.7241137,0,0,3.2088568,-103.00111,-82.571935)" /><path
       id="path9978"
       clip-path="url(#clipPath12506)"
       style="font-style:normal;font-variant:normal;font-weight:normal;font-stretch:normal;font-size:211.667px;font-family:'Gentium Book Basic';-inkscape-font-specification:'Gentium Book Basic';white-space:pre;inline-size:129.143;display:inline;mix-blend-mode:normal;fill:#00688f;fill-opacity:1;stroke-width:0.264583"
       d="m 117.43076,70.159529 a 43.261942,34.519012 0 0 1 0.34322,0.05443 43.261942,34.519012 0 0 1 0.007,0.0013 c -0.12516,-0.02617 -0.24826,-0.05452 -0.3738,-0.0803 0.007,0.0054 0.0143,0.01082 0.0213,0.0165 0.004,0.0031 0.002,0.0055 0.002,0.0081 z"
       transform="matrix(2.7241137,0,0,3.2088568,-103.00111,-82.571935)" /><path
       id="path9976"
       clip-path="url(#clipPath12506)"
       style="font-style:normal;font-variant:normal;font-weight:normal;font-stretch:normal;font-size:211.667px;font-family:'Gentium Book Basic';-inkscape-font-specification:'Gentium Book Basic';white-space:pre;inline-size:129.143;display:inline;mix-blend-mode:normal;fill:#00688f;fill-opacity:1;stroke-width:0.264583"
       d="m 116.96071,70.086216 c 0.003,0.0017 0.007,0.0034 0.01,0.0051 0.002,8.86e-4 0.004,0.0023 0.006,0.0033 -0.002,-0.0022 -10e-4,-0.0043 -0.003,-0.0065 a 43.261942,34.519012 0 0 0 -0.0127,-0.0019 z"
       transform="matrix(2.7241137,0,0,3.2088568,-103.00111,-82.571935)" /><path
       id="path9974"
       clip-path="url(#clipPath12506)"
       style="font-style:normal;font-variant:normal;font-weight:normal;font-stretch:normal;font-size:211.667px;font-family:'Gentium Book Basic';-inkscape-font-specification:'Gentium Book Basic';white-space:pre;inline-size:129.143;display:inline;mix-blend-mode:normal;fill:#00688f;fill-opacity:1;stroke-width:0.264583"
       d="m 116.96071,70.086216 a 43.261942,34.519012 0 0 1 0.0127,0.0019 c -0.0129,-0.01691 -0.0107,-0.03366 0.005,-0.03745 -0.0578,-0.01153 -0.11769,-0.02097 -0.17569,-0.03237 0.01,0.0057 0.0184,0.01179 0.0277,0.01745 0.003,-0.0014 0.003,-0.0055 0.007,-0.0057 0.008,-3.31e-4 0.0179,0.0016 0.0286,0.007 0.0315,0.01612 0.0632,0.03268 0.0946,0.04919 z"
       transform="matrix(2.7241137,0,0,3.2088568,-103.00111,-82.571935)" /><path
       id="path9972"
       clip-path="url(#clipPath12506)"
       style="font-style:normal;font-variant:normal;font-weight:normal;font-stretch:normal;font-size:211.667px;font-family:'Gentium Book Basic';-inkscape-font-specification:'Gentium Book Basic';white-space:pre;inline-size:129.143;display:inline;mix-blend-mode:normal;fill:#00688f;fill-opacity:1;stroke-width:0.264583"
       d="m 116.45356,70.012744 a 43.261942,34.519012 0 0 1 0.20337,0.02952 c -0.006,-0.0018 -0.0116,-0.0042 -0.0175,-0.0059 -0.0257,-0.0066 -0.0513,-0.01372 -0.0773,-0.01952 -0.03,-0.0067 -0.0604,-0.01236 -0.0908,-0.01666 -0.0167,-0.0024 -0.0333,-0.0047 -0.0499,-0.0071 0.0188,0.0027 0.0278,0.01085 0.0322,0.01968 z"
       transform="matrix(2.7241137,0,0,3.2088568,-103.00111,-82.571935)" /><path
       id="path1490"
       style="font-style:normal;font-variant:normal;font-weight:normal;font-stretch:normal;font-size:167.5px;font-family:'DejaVu Sans Mono';-inkscape-font-specification:'DejaVu Sans Mono';mix-blend-mode:normal;fill:#00688f;fill-opacity:1;stroke-width:1.09988"
       d="m 89.247893,304.12039 87.318717,138.98066 -51.64536,80.02606 h 42.67177 l 31.81447,-50.72546 29.47828,50.72546 H 269.9048 L 220.42843,443.10105 310.77947,304.12039 H 266.91765 L 199.40749,415.58228 133.10966,304.12039 Z"
       transform="matrix(0.95376071,0,0,1,4.988001,0)" /><g
       id="path722"
       transform="matrix(0.95376071,0,0,1,-33.369097,0)"
       style="filter:url(#filter1099)"><path
         style="color:#000000;fill:#00688f;stroke-width:0.26264;-inkscape-stroke:none"
         d="m 53.158395,487.17569 a 0.02633034,0.02594501 0 0 1 -0.02633,0.0259 0.02633034,0.02594501 0 0 1 -0.02633,-0.0259 0.02633034,0.02594501 0 0 1 0.02633,-0.0259 0.02633034,0.02594501 0 0 1 0.02633,0.0259 z"
         id="path355" /><path
         style="color:#000000;fill:#000000;-inkscape-stroke:none"
         d="m 53.132812,487.01758 c -0.08447,0 -0.158203,0.0718 -0.158203,0.1582 0,0.0864 0.07373,0.15625 0.158203,0.15625 0.08447,0 0.156251,-0.0699 0.15625,-0.15625 10e-7,-0.0863 -0.07178,-0.1582 -0.15625,-0.1582 z m 0,0.0527 c 0.05539,0 0.103516,0.0478 0.103516,0.10547 0,0.0577 -0.04812,0.10547 -0.103516,0.10547 -0.05539,0 -0.105468,-0.0478 -0.105468,-0.10547 0,-0.0577 0.05008,-0.10547 0.105468,-0.10547 z"
         id="path357" /></g><g
       transform="matrix(0.0301021,0,0,-0.02845402,76.940498,364.85925)"
       fill="#000000"
       stroke="none"
       id="g10077"
       style="mix-blend-mode:normal;fill:#00688f;fill-opacity:1"><path
         d="m 3590,7890 c -151,-16 -325,-42 -334,-51 -6,-5 15,-9 50,-9 67,0 157,-26 151,-44 -2,-6 -24,-14 -48,-18 -24,-3 -72,-18 -106,-32 -35,-14 -68,-26 -75,-26 -7,0 -55,-20 -105,-45 -51,-24 -104,-47 -118,-51 -14,-3 -27,-10 -30,-14 -9,-14 -110,-59 -130,-58 -11,1 -46,-15 -77,-35 -43,-28 -64,-36 -83,-31 -29,7 -56,-11 -49,-31 9,-21 -11,-26 -124,-29 -84,-2 -118,-8 -156,-25 -27,-11 -58,-21 -70,-22 -36,-1 -153,-34 -171,-49 -15,-12 -211,-110 -221,-110 -21,0 48,98 91,130 116,86 325,189 625,308 138,55 218,90 209,91 -15,2 -283,-94 -393,-140 C 1900,7378 1402,7028 1036,6622 471,5997 135,5269 23,4430 -3,4236 -3,3664 23,3470 165,2408 690,1481 1515,835 2074,397 2741,120 3470,23 c 194,-26 766,-26 960,0 1062,142 1989,667 2635,1492 438,559 715,1226 812,1955 26,194 26,766 0,960 -49,370 -149,742 -287,1065 -50,118 -190,398 -196,392 -5,-5 78,-209 136,-332 23,-49 50,-110 60,-135 23,-59 43,-209 30,-225 -6,-7 -7,-29 -2,-57 5,-25 5,-55 0,-68 -6,-17 -3,-38 13,-74 12,-28 28,-77 34,-109 11,-51 11,-59 -3,-64 -23,-9 -39,22 -47,90 -9,76 -21,110 -36,101 -8,-4 -10,-32 -7,-81 5,-71 11,-86 97,-257 98,-194 117,-254 108,-355 -18,-193 -27,-265 -36,-274 -8,-8 -11,5 -11,44 0,61 -6,73 -37,83 -13,4 -30,26 -43,54 -12,26 -32,52 -45,58 -23,11 -23,10 -18,-25 2,-20 9,-56 14,-81 6,-29 6,-57 -1,-80 -16,-54 -13,-93 5,-86 17,6 37,-31 55,-101 8,-32 16,-43 30,-43 11,0 20,-6 20,-13 0,-7 11,-29 26,-48 21,-29 24,-41 19,-80 -4,-30 -1,-65 9,-100 39,-128 3,-148 -55,-30 -21,40 -40,97 -43,125 -4,29 -17,67 -29,86 -93,143 -93,142 -77,190 17,53 8,140 -20,178 -12,16 -24,49 -27,73 -4,24 -16,60 -29,79 -12,19 -29,59 -39,88 -9,28 -20,52 -25,52 -11,0 -20,-37 -20,-82 0,-33 -3,-38 -23,-38 -30,0 -45,31 -53,108 -8,68 -16,84 -61,131 -19,20 -37,48 -40,63 -3,17 -10,25 -18,21 -8,-3 -24,10 -37,31 -17,26 -28,34 -41,30 -13,-4 -20,0 -24,15 -3,12 -9,21 -13,21 -4,0 -32,-27 -62,-60 -55,-59 -56,-60 -60,-130 -2,-39 -9,-74 -14,-78 -6,-4 -14,-24 -18,-45 -9,-50 -58,-172 -78,-194 -8,-10 -18,-33 -22,-51 -3,-19 -15,-47 -27,-63 -18,-25 -20,-39 -15,-87 15,-140 17,-180 8,-213 -6,-25 -5,-42 6,-65 13,-29 13,-34 -8,-62 -16,-21 -21,-38 -16,-55 4,-18 -1,-33 -17,-54 -13,-15 -27,-40 -31,-55 -3,-15 -15,-30 -28,-34 -24,-7 -45,14 -80,86 -12,25 -39,68 -60,96 -21,27 -53,85 -73,127 -19,41 -56,106 -81,143 -26,37 -51,81 -57,98 -6,17 -17,42 -26,55 -18,29 -70,225 -80,303 -6,55 -15,77 -26,66 -3,-3 0,-17 6,-31 10,-23 8,-30 -15,-57 -14,-17 -26,-36 -26,-41 0,-15 -18,-10 -37,10 -10,11 -31,24 -46,30 -33,13 -34,29 -5,66 l 21,27 -29,-6 c -39,-9 -118,34 -185,99 l -50,48 -42,-13 c -23,-7 -77,-16 -120,-21 -54,-5 -85,-14 -103,-28 -34,-27 -83,-27 -204,-1 -89,19 -97,23 -136,66 -44,48 -60,50 -94,10 -9,-12 -31,-16 -75,-16 -54,0 -68,4 -94,26 -17,14 -46,30 -65,35 -30,8 -37,17 -61,77 -40,99 -38,97 -79,94 -31,-2 -36,0 -36,18 0,28 -19,25 -30,-5 -5,-14 -16,-25 -25,-25 -8,0 -15,-2 -15,-5 0,-18 34,-66 59,-84 16,-12 35,-37 41,-56 7,-22 18,-35 29,-35 22,0 41,-19 41,-42 0,-11 7,-18 19,-18 23,0 38,-37 22,-53 -6,-6 -11,-20 -11,-31 0,-19 2,-18 26,7 39,42 60,32 56,-27 l -2,-48 82,7 c 46,4 89,12 97,19 8,6 27,39 42,74 26,58 31,63 56,60 25,-3 28,-9 40,-68 7,-35 17,-68 21,-72 5,-5 39,-15 76,-22 37,-8 69,-16 70,-18 1,-2 17,-22 34,-44 36,-47 39,-64 16,-99 -9,-14 -14,-39 -12,-62 3,-36 1,-38 -26,-38 -35,0 -43,-16 -22,-47 8,-13 19,-42 25,-66 10,-49 -2,-62 -39,-42 -30,16 -52,-4 -48,-44 2,-26 -2,-33 -27,-45 -16,-8 -34,-20 -38,-27 -4,-7 -24,-18 -45,-23 -46,-13 -172,-79 -172,-91 0,-17 -52,-70 -68,-70 -23,0 -140,-56 -178,-85 -17,-13 -44,-27 -60,-31 -16,-4 -51,-18 -79,-31 -27,-12 -62,-23 -76,-23 -15,0 -53,-16 -85,-35 -85,-52 -105,-46 -122,33 -6,23 -22,56 -36,73 -21,24 -26,41 -24,68 2,29 7,35 22,33 20,-4 20,-3 -23,63 -14,22 -39,67 -56,100 -19,38 -60,90 -113,143 -46,46 -87,95 -93,109 -5,13 -6,48 -3,78 6,45 3,58 -15,81 -11,15 -21,33 -21,40 0,8 -12,16 -27,20 -66,13 -73,21 -73,69 0,61 -8,75 -103,173 -79,83 -79,84 -73,125 5,28 4,39 -3,32 -5,-5 -11,-28 -13,-50 -2,-33 -7,-41 -26,-43 -18,-3 -23,2 -28,28 -6,27 -44,60 -69,60 -10,0 28,-65 51,-87 13,-12 24,-29 24,-38 0,-9 10,-37 23,-63 13,-26 29,-72 36,-102 10,-41 24,-66 54,-97 32,-34 38,-46 29,-55 -19,-19 -15,-26 32,-47 46,-20 66,-45 66,-80 0,-12 9,-26 20,-33 18,-12 20,-24 20,-120 v -107 l 30,-16 c 50,-26 67,-54 90,-145 23,-93 29,-100 90,-100 42,0 88,-32 123,-85 17,-27 41,-51 52,-54 26,-4 35,-19 35,-58 0,-43 17,-79 44,-91 14,-6 79,-4 201,9 171,17 184,20 252,55 73,37 103,39 103,6 0,-11 10,-32 22,-47 l 22,-28 -27,-19 c -21,-15 -27,-28 -27,-55 0,-25 -7,-43 -25,-59 -16,-14 -25,-34 -25,-52 0,-19 -11,-40 -30,-60 -24,-25 -30,-41 -30,-74 0,-31 -10,-59 -39,-107 -21,-36 -50,-87 -65,-114 -29,-51 -57,-73 -120,-97 -31,-12 -46,-25 -59,-53 -11,-25 -36,-49 -72,-72 -30,-19 -66,-51 -82,-71 -15,-20 -44,-47 -65,-60 -28,-18 -38,-31 -38,-49 0,-17 -8,-29 -25,-37 -17,-8 -25,-19 -25,-37 0,-20 -21,-46 -83,-106 -115,-111 -125,-132 -85,-185 18,-25 20,-33 10,-55 -21,-45 -15,-84 13,-97 14,-6 25,-17 25,-24 0,-7 13,-27 29,-44 29,-32 43,-81 44,-153 1,-20 5,-37 9,-37 4,0 8,-17 8,-37 0,-20 6,-44 14,-52 14,-16 19,-34 17,-58 -1,-16 -101,-83 -123,-83 -9,0 -40,-14 -68,-30 -28,-17 -55,-30 -60,-30 -4,0 -33,-23 -64,-50 -31,-29 -75,-58 -100,-66 -25,-9 -49,-20 -52,-25 -8,-13 14,-76 34,-96 13,-12 17,-35 17,-89 0,-66 -2,-74 -23,-84 -13,-5 -28,-10 -34,-10 -6,0 -37,-12 -69,-26 -56,-25 -59,-28 -59,-63 0,-20 -9,-49 -20,-66 -11,-16 -20,-42 -20,-57 0,-23 -11,-32 -84,-72 -46,-25 -103,-62 -126,-81 -56,-47 -105,-59 -230,-56 -58,1 -148,3 -200,4 -122,3 -174,19 -200,64 -24,41 -25,53 -5,53 21,0 19,17 -5,30 -11,6 -42,40 -70,77 -28,36 -81,92 -119,124 -73,62 -108,111 -108,151 0,14 -17,52 -37,85 -20,32 -36,68 -36,79 0,23 -22,55 -87,126 -24,26 -43,56 -43,67 0,11 -14,30 -31,42 -17,12 -38,37 -45,55 -18,43 -18,134 0,160 10,13 11,25 5,35 -17,27 -9,59 26,98 19,21 35,46 35,54 0,28 -49,151 -64,163 -11,8 -15,26 -13,64 1,35 -2,55 -10,57 -7,3 -13,12 -13,22 0,9 -11,33 -25,51 -14,19 -25,41 -24,50 4,33 -14,100 -32,119 -11,11 -37,25 -58,31 -40,11 -72,46 -76,84 -1,12 -3,24 -4,28 0,4 -11,8 -23,10 -16,2 -22,9 -20,23 1,11 -8,39 -20,62 l -22,42 22,18 c 17,14 23,36 31,108 6,50 13,105 17,123 5,28 4,32 -14,32 -16,0 -24,10 -32,40 -14,53 -38,64 -115,52 -80,-13 -98,-3 -124,67 -26,72 -60,106 -96,97 -22,-6 -28,-3 -32,14 -8,29 -41,26 -138,-15 -72,-29 -91,-33 -136,-28 -43,5 -54,11 -68,35 -15,26 -19,28 -59,22 -31,-5 -49,-2 -68,11 -23,15 -27,15 -49,1 -28,-18 -68,-21 -96,-6 -10,6 -42,45 -71,88 -29,42 -72,99 -97,126 l -46,48 -2,107 c -2,92 -5,108 -22,122 -12,10 -25,42 -35,88 -8,40 -21,80 -29,89 -8,10 -18,40 -22,67 -10,67 -6,209 6,213 20,8 39,34 39,57 0,13 4,25 10,27 5,2 17,28 26,58 37,129 44,176 39,236 -6,58 -5,64 23,95 16,19 59,81 96,137 81,125 156,208 213,234 23,10 45,23 48,28 3,6 15,10 26,10 10,0 33,14 51,30 17,17 35,30 39,30 5,0 9,12 9,28 0,15 11,45 25,67 13,22 31,53 38,68 8,17 42,44 89,72 41,24 82,54 90,67 9,13 27,35 40,49 21,23 24,33 19,65 -6,35 -10,39 -39,42 -36,4 -36,3 -21,71 7,33 31,81 70,138 34,50 66,112 75,143 26,91 34,98 100,95 36,-2 64,-10 78,-22 32,-28 82,-53 104,-53 24,0 82,52 82,73 0,19 31,31 41,16 4,-7 7,-2 7,12 -1,13 2,48 6,77 6,49 5,54 -13,59 -12,3 -21,9 -21,13 0,4 -10,10 -22,13 l -22,6 24,27 c 35,36 60,48 73,35 18,-18 45,-13 52,10 6,17 12,20 33,15 85,-20 98,-19 126,9 32,31 131,79 150,72 16,-6 41,18 50,49 5,15 18,24 41,28 18,4 44,15 57,25 18,15 33,18 76,14 l 53,-6 -13,28 c -11,25 -10,29 17,51 32,25 45,23 45,-6 0,-25 35,-43 69,-37 37,8 81,-3 81,-20 0,-10 5,-11 18,-5 9,5 40,12 67,15 28,3 65,9 84,13 29,6 33,5 28,-9 -4,-10 -4,-17 -1,-17 10,0 94,85 94,95 0,6 21,34 46,63 l 47,53 24,-23 24,-23 19,25 c 25,33 25,37 -5,44 -32,8 -32,31 0,52 18,11 46,16 96,15 82,-1 119,6 119,24 0,27 -81,26 -159,-2 l -74,-27 -18,23 c -23,28 -24,44 -4,61 8,7 18,29 21,50 5,28 17,47 48,72 23,20 53,39 66,43 55,17 65,40 21,50 -32,7 -81,-17 -81,-40 0,-15 -64,-55 -88,-55 -9,0 -31,-9 -49,-20 -36,-21 -58,-82 -48,-129 5,-24 1,-30 -36,-50 -25,-14 -46,-36 -54,-56 -8,-17 -21,-37 -29,-45 -9,-7 -16,-18 -16,-24 -1,-14 -128,-96 -151,-96 -15,0 -17,10 -15,83 2,45 8,95 15,111 6,16 10,31 7,33 -8,8 -65,-27 -75,-46 -12,-21 -60,-41 -102,-41 -34,0 -44,13 -24,30 9,8 13,21 9,32 -7,23 21,58 48,58 13,0 18,7 18,29 0,33 20,54 44,45 9,-3 16,-1 16,5 0,6 -7,11 -15,11 -8,0 -15,5 -15,10 0,18 64,50 98,50 43,0 81,23 107,63 11,18 40,43 64,56 25,14 38,26 32,30 -15,9 68,64 86,57 8,-3 13,2 13,14 0,10 13,28 29,39 34,25 53,27 45,6 -7,-17 4,-19 25,-6 7,5 11,13 7,19 -7,12 0,14 94,33 36,7 71,19 78,26 17,16 46,17 72,1 15,-10 25,-10 38,-2 27,17 97,3 96,-19 -2,-13 3,-16 17,-12 12,4 21,1 25,-9 4,-11 20,-16 48,-17 60,-1 90,-12 101,-36 5,-12 19,-26 32,-32 25,-12 30,-30 11,-49 -17,-17 -90,-15 -114,3 -25,19 -40,19 -24,0 8,-10 10,-29 6,-54 -5,-34 -3,-42 16,-55 34,-24 40,-19 23,14 -19,36 -13,50 21,50 31,0 84,26 84,42 0,7 19,9 60,5 33,-3 60,-2 60,2 0,5 -13,27 -30,49 -16,23 -30,44 -30,47 0,7 75,6 94,-1 10,-4 16,-18 16,-35 0,-24 4,-29 25,-29 30,0 31,5 5,48 -25,41 -26,41 10,40 23,-1 30,-6 30,-20 0,-23 24,-18 77,13 22,14 33,16 38,8 5,-7 23,-9 51,-4 25,3 52,2 64,-5 15,-8 20,-8 20,2 -1,22 -26,48 -46,48 -26,0 -48,16 -40,29 4,6 15,7 29,1 12,-4 31,-11 42,-15 25,-8 217,-13 209,-6 -3,3 -29,18 -57,32 -46,22 -52,29 -55,60 -2,19 -8,38 -13,43 -13,15 -11,26 6,26 19,0 85,-32 85,-41 0,-4 17,-17 38,-29 l 37,-22 -34,35 c -48,51 -30,66 25,21 24,-20 47,-34 50,-32 3,3 -9,16 -25,28 -17,12 -31,26 -31,31 0,12 37,12 45,-1 3,-5 16,-10 28,-10 21,0 21,1 -3,17 -14,9 -27,18 -30,21 -3,2 4,10 14,18 19,13 18,14 -10,14 -17,0 -39,6 -49,14 -19,14 -19,15 -2,34 17,19 17,20 -3,25 -18,5 -20,9 -10,26 12,24 75,30 83,9 2,-7 8,-10 12,-6 4,4 2,14 -4,22 -10,12 -3,17 43,30 l 55,16 66,-44 c 66,-46 89,-49 100,-15 11,33 35,49 76,49 21,0 39,4 39,9 0,12 -88,37 -160,46 -30,3 -62,12 -70,20 -17,14 -275,67 -450,91 -133,18 -712,28 -850,14 z m 1145,-167 c -10,-41 -19,-46 -64,-38 -50,8 -54,25 -6,25 24,0 37,6 45,20 16,30 33,25 25,-7 z m -255,-23 c 13,0 13,-1 0,-10 -10,-6 6,-7 45,-4 l 60,5 -38,-20 c -38,-20 -97,-20 -97,0 0,5 -9,9 -19,9 -23,0 -35,15 -27,35 4,12 9,12 33,0 15,-8 35,-15 43,-15 z m -520,-40 c -13,-8 -12,-10 4,-10 15,0 16,-3 6,-15 -19,-23 -38,-18 -36,10 1,18 7,25 21,25 17,0 17,-2 5,-10 z m -82,-22 c -3,-7 -11,-13 -18,-13 -7,0 -15,6 -17,13 -3,7 4,12 17,12 13,0 20,-5 18,-12 z m -349,-28 c 6,0 11,4 11,9 0,5 9,12 20,16 21,7 90,-4 90,-14 0,-3 -21,-14 -46,-25 -28,-12 -49,-28 -54,-42 -6,-15 -18,-24 -31,-24 -18,0 -20,4 -15,25 5,20 3,25 -14,25 -23,0 -23,0 -9,37 10,26 12,27 23,11 7,-10 18,-18 25,-18 z m 849,-29 c 3,-8 0,-11 -6,-7 -14,9 -65,-12 -57,-23 3,-6 -4,-15 -15,-21 -17,-9 -19,-14 -9,-26 9,-11 7,-14 -10,-14 -12,0 -24,-7 -27,-15 -4,-10 -20,-15 -48,-15 -40,0 -41,1 -41,33 0,28 4,32 28,35 19,2 27,9 27,22 0,12 9,22 25,26 13,3 29,11 34,18 14,16 93,6 99,-13 z m -716,-6 c 1,-12 -71,-25 -78,-14 -7,12 28,29 54,26 12,-1 23,-6 24,-12 z m 603,-151 c 9,-14 30,-30 46,-36 16,-5 29,-14 29,-18 0,-13 -71,-23 -83,-11 -6,6 -15,6 -27,-1 -15,-9 -23,-6 -44,17 -14,15 -24,30 -22,34 1,3 6,14 9,24 10,28 71,23 92,-9 z M 2540,7255 c 0,-45 -63,-105 -111,-105 -14,0 -30,-5 -35,-10 -11,-11 -81,-4 -105,11 -11,7 -3,19 33,56 41,41 55,48 100,54 94,11 118,10 118,-6 z m 80,-334 c 0,-16 -38,-51 -55,-51 -5,0 4,48 12,63 9,16 43,7 43,-12 z m -260,-81 c -6,-10 -18,-23 -26,-28 -10,-5 -12,-12 -7,-15 6,-4 21,5 33,18 26,28 61,32 80,10 9,-11 10,-18 1,-29 -6,-7 -9,-20 -5,-29 7,-19 -20,-73 -41,-81 -11,-4 -14,-13 -9,-31 4,-15 1,-32 -6,-40 -10,-12 -10,-15 0,-15 7,0 10,-8 7,-20 -3,-13 5,-30 26,-51 l 32,-31 -27,-22 c -16,-12 -28,-27 -28,-34 0,-6 -15,-15 -32,-20 -21,-5 -34,-15 -36,-28 -8,-45 -65,-56 -145,-29 -40,13 -48,13 -75,-1 -24,-11 -36,-13 -52,-4 -25,13 -26,30 -2,30 29,0 58,27 91,84 16,30 39,57 49,60 10,4 33,22 52,41 28,29 31,37 20,50 -11,13 -7,25 19,75 31,58 29,70 -8,50 -16,-8 -18,-5 -18,15 0,14 4,28 10,32 7,4 8,0 4,-11 -4,-11 -3,-16 4,-14 6,2 9,7 7,10 -5,10 64,78 79,78 11,0 11,-5 3,-20 z m -170,-164 c 0,-7 9,-16 20,-19 29,-7 25,-24 -10,-46 -17,-10 -49,-42 -71,-72 -38,-52 -42,-54 -97,-61 -44,-4 -59,-3 -65,8 -4,8 -15,14 -22,14 -8,0 -15,4 -15,10 0,11 40,34 40,23 0,-4 5,0 11,10 8,14 14,15 24,7 10,-8 18,-4 34,19 12,16 21,38 21,49 0,23 28,38 43,23 7,-7 19,0 37,20 30,31 50,37 50,15 z M 960,6030 c 0,-11 9,-29 19,-39 17,-17 18,-22 6,-38 -14,-17 -14,-17 -15,5 0,12 -4,22 -8,22 -5,0 -16,6 -26,13 -16,12 -17,16 -5,35 17,27 29,28 29,2 z m 20,-109 c 0,-12 -39,-25 -48,-16 -7,7 17,25 36,25 6,0 12,-4 12,-9 z m 57,-555 c -4,-9 -11,-16 -17,-16 -11,0 -14,33 -3,43 11,11 26,-10 20,-27 z M 6854,3668 c 12,-13 31,-28 41,-34 16,-9 19,-24 21,-103 2,-91 2,-92 -24,-102 -21,-8 -29,-7 -39,7 -7,10 -13,22 -13,28 0,5 -7,17 -15,26 -16,18 -25,165 -11,188 10,17 15,15 40,-10 z m 740,-4 c 9,-8 16,-25 16,-36 0,-11 20,-47 45,-80 25,-33 45,-53 45,-44 0,31 20,16 45,-34 14,-27 25,-59 25,-71 0,-13 7,-30 16,-40 20,-23 30,-103 16,-132 -6,-12 -13,-44 -16,-71 -6,-48 -30,-91 -46,-81 -4,3 -11,17 -14,31 -4,14 -16,38 -26,53 -13,17 -23,52 -28,101 -6,67 -9,75 -29,78 -16,2 -23,11 -24,25 -1,17 -2,18 -6,5 -2,-10 -11,-18 -19,-18 -18,0 -31,50 -14,60 7,4 8,10 2,14 -5,3 -12,29 -16,57 -5,39 -12,52 -26,56 -22,6 -26,16 -34,88 -6,44 -5,48 7,33 19,-24 34,-23 42,2 8,24 18,25 39,4 z m -2366,-96 c 30,-30 -1,-73 -36,-51 -23,14 -25,29 -7,47 20,19 27,20 43,4 z m 2322,-118 c 0,-16 -4,-30 -9,-30 -12,0 -24,37 -16,50 12,20 25,10 25,-20 z m 98,-163 c 2,-18 -1,-27 -11,-27 -15,0 -30,37 -21,52 10,17 29,2 32,-25 z M 1923,2945 c 17,-24 17,-25 -4,-46 -25,-25 -39,-13 -39,32 0,45 16,50 43,14 z m -133,-174 c 15,-29 12,-41 -9,-41 -20,0 -37,32 -26,50 10,16 23,12 35,-9 z m 3060,-941 c 0,-4 -7,-10 -15,-14 -11,-4 -15,2 -15,21 0,21 2,24 15,13 8,-7 15,-16 15,-20 z m 70,-79 c 0,-20 8,-34 25,-45 23,-15 25,-22 25,-101 0,-47 -4,-85 -9,-85 -5,0 -11,5 -13,10 -2,6 -15,-3 -30,-20 -16,-19 -21,-30 -13,-30 21,0 27,-17 15,-41 -8,-14 -18,-19 -31,-16 -16,4 -18,1 -13,-18 3,-13 -1,-37 -10,-53 -9,-17 -16,-42 -16,-56 0,-14 -4,-28 -10,-31 -5,-3 -10,-15 -10,-26 0,-11 -11,-36 -24,-57 -13,-20 -32,-59 -42,-87 -21,-60 -56,-101 -100,-115 -18,-6 -35,-18 -38,-27 -5,-12 -16,-14 -49,-10 -49,7 -91,49 -101,101 -7,38 10,137 32,186 9,21 16,66 17,110 2,118 13,141 86,170 34,13 68,34 76,47 9,13 23,23 32,22 9,-1 29,3 44,9 16,7 33,12 38,12 5,0 9,9 9,20 0,10 8,24 19,29 10,6 21,24 25,41 6,35 42,90 57,90 5,0 9,-13 9,-29 z m -350,5 c 0,-2 3,-11 6,-20 5,-12 -1,-16 -23,-16 -36,0 -46,9 -32,27 10,12 49,19 49,9 z m 180,-22 c 0,-3 -5,-14 -10,-25 -13,-23 -36,-25 -44,-3 -11,28 -7,34 24,34 17,0 30,-3 30,-6 z m 710,-374 c 0,-27 -45,-49 -63,-31 -9,10 -7,16 12,32 30,25 51,24 51,-1 z m -140,-97 c 0,-14 -18,-17 -44,-7 -21,8 -20,31 2,43 18,11 42,-9 42,-36 z"
         id="path10053"
         style="fill:#00688f;fill-opacity:1" /><path
         d="m 4720,7373 c 55,-40 88,-75 94,-98 4,-14 11,-25 16,-25 15,0 12,15 -10,43 -11,14 -20,31 -20,39 0,7 -19,22 -43,32 -60,28 -65,29 -37,9 z"
         id="path10055"
         style="fill:#00688f;fill-opacity:1" /><path
         d="m 4892,7315 c 39,-27 48,-30 48,-17 0,8 -63,42 -78,42 -4,0 10,-11 30,-25 z"
         id="path10057"
         style="fill:#00688f;fill-opacity:1" /><path
         d="m 6188,6946 c 36,-39 67,-83 77,-113 21,-56 29,-67 45,-61 7,2 -1,27 -20,68 -18,36 -37,75 -43,88 -10,22 -91,82 -110,82 -5,0 18,-29 51,-64 z"
         id="path10059"
         style="fill:#00688f;fill-opacity:1" /><path
         d="m 7096,6307 c -11,-8 -17,-22 -14,-38 2,-20 10,-25 42,-29 43,-5 42,-4 82,-105 20,-49 44,-87 83,-127 56,-60 80,-74 60,-35 -15,28 -192,294 -216,325 -16,20 -21,21 -37,9 z"
         id="path10061"
         style="fill:#00688f;fill-opacity:1" /><path
         d="m 5721,6243 c -54,-10 -67,-55 -26,-93 24,-23 50,-21 27,2 -24,24 -13,48 30,65 35,14 38,18 22,24 -10,4 -21,7 -24,7 -3,0 -16,-3 -29,-5 z"
         id="path10063"
         style="fill:#00688f;fill-opacity:1" /><path
         d="m 4600,6079 c -47,-28 -140,-127 -140,-149 0,-9 9,-25 20,-35 12,-10 18,-25 16,-32 -4,-8 3,-13 18,-13 22,0 24,-3 19,-39 -5,-34 -2,-41 20,-56 15,-9 29,-25 32,-36 4,-10 14,-19 24,-19 10,0 24,-7 31,-15 7,-8 18,-15 26,-15 7,0 20,-7 29,-16 12,-12 13,-19 4,-30 -6,-7 -8,-18 -4,-24 12,-20 -18,-70 -42,-70 -28,0 -31,-32 -9,-85 12,-28 21,-35 42,-35 14,0 48,-16 74,-35 42,-31 49,-33 61,-19 7,8 25,22 40,29 24,13 28,12 45,-6 10,-11 21,-16 26,-11 10,10 0,42 -13,42 -5,0 -16,25 -25,56 -9,31 -27,65 -40,77 -26,22 -32,47 -11,47 6,1 0,8 -15,16 -19,10 -28,23 -28,39 0,22 4,25 35,25 19,0 35,2 35,5 0,11 -43,85 -47,81 -3,-2 1,-14 7,-26 16,-29 -2,-50 -28,-34 -21,14 -29,83 -10,96 9,7 4,8 -15,5 -23,-4 -31,1 -43,25 -8,16 -31,39 -50,50 -38,23 -44,44 -14,53 14,4 19,12 16,23 -7,22 35,43 59,30 9,-6 20,-7 23,-3 4,4 -1,11 -11,16 -13,8 -17,21 -15,50 1,27 -3,44 -13,50 -25,16 -93,10 -129,-12 z"
         id="path10065"
         style="fill:#00688f;fill-opacity:1" /><path
         d="m 3925,6039 c -27,-11 -59,-24 -70,-29 -11,-5 -33,-11 -49,-12 -16,-2 -31,-8 -33,-14 -4,-13 48,-34 83,-34 17,0 24,-6 24,-19 0,-16 -9,-20 -52,-24 -29,-2 -63,-8 -75,-12 -20,-6 -23,-4 -23,19 0,21 -5,26 -24,26 -33,0 -42,17 -20,41 19,21 13,33 -23,43 -16,5 -37,-7 -96,-59 -85,-74 -125,-130 -142,-195 -9,-37 -9,-50 4,-73 16,-28 17,-28 86,-22 45,4 80,13 97,26 48,34 198,21 304,-28 44,-20 64,-24 92,-18 21,4 56,7 78,6 52,-2 78,20 69,58 -9,36 -41,68 -81,81 -19,7 -34,15 -34,19 0,20 -71,78 -108,89 -46,14 -49,42 -5,42 23,0 25,3 19,31 -5,27 -3,32 24,42 28,11 36,28 14,33 -5,2 -31,-6 -59,-17 z"
         id="path10067"
         style="fill:#00688f;fill-opacity:1" /><path
         d="m 2634,5954 c -11,-34 -11,-35 17,-41 27,-5 29,-9 29,-55 0,-47 2,-50 35,-64 21,-8 45,-31 60,-54 14,-22 31,-40 39,-40 18,0 66,-49 66,-67 0,-25 -32,-28 -48,-5 -17,27 -38,28 -51,5 -7,-13 -5,-23 5,-34 13,-14 11,-19 -11,-43 -14,-15 -25,-33 -25,-40 0,-19 -25,-38 -62,-45 -24,-5 -34,-14 -43,-41 -16,-46 -41,-61 -61,-35 -8,11 -29,25 -47,31 -18,6 -39,23 -47,37 -13,24 -13,28 1,42 13,13 24,14 60,6 25,-6 54,-8 66,-5 11,3 24,1 27,-5 13,-20 26,-11 48,33 l 21,44 -25,44 c -23,38 -39,56 -93,108 -22,20 -58,74 -92,135 -19,35 -28,45 -31,33 -2,-10 -12,-18 -22,-18 -10,0 -46,-7 -81,-16 -41,-11 -79,-14 -114,-9 -62,7 -99,-7 -115,-44 -14,-34 -43,-53 -113,-74 -63,-20 -81,-40 -92,-99 -6,-29 -16,-43 -44,-59 -20,-12 -50,-35 -67,-51 -30,-28 -36,-30 -95,-25 -35,3 -77,8 -94,11 -22,5 -36,1 -54,-14 -22,-19 -22,-21 -7,-45 11,-16 35,-30 73,-41 55,-16 57,-16 132,10 142,49 269,56 307,18 13,-13 21,-13 48,-4 43,16 63,15 94,-4 25,-14 31,-14 65,1 21,8 40,22 44,30 8,22 33,18 33,-5 0,-13 7,-20 20,-20 11,0 20,-6 20,-13 0,-8 -9,-22 -20,-32 -24,-21 -26,-48 -5,-65 19,-16 19,-39 0,-46 -8,-4 -29,-26 -45,-51 -29,-43 -30,-47 -15,-69 8,-13 27,-31 41,-40 22,-15 30,-15 66,-3 37,12 44,11 86,-12 47,-25 53,-33 68,-83 7,-22 22,-36 54,-51 82,-40 132,-52 168,-43 36,10 45,26 56,101 l 7,48 77,-3 c 73,-3 78,-4 90,-30 11,-24 19,-28 57,-28 32,0 51,-7 75,-26 24,-21 37,-25 61,-20 21,4 46,-1 77,-16 60,-27 88,-27 189,2 l 82,23 38,-26 c 21,-14 52,-28 69,-32 29,-5 35,-2 72,45 33,41 40,57 36,80 -4,20 2,41 20,72 28,47 33,89 16,134 -8,21 -7,31 5,44 8,9 15,25 15,36 -1,18 -1,18 -14,2 -8,-11 -27,-18 -47,-18 -19,-1 -45,-7 -59,-15 -38,-22 -71,-18 -101,11 l -28,26 -35,-21 c -31,-19 -42,-21 -85,-13 -67,12 -100,6 -94,-18 6,-22 -7,-30 -52,-36 -38,-5 -50,14 -15,23 11,3 20,12 20,19 0,8 6,14 14,14 15,0 13,13 -14,87 -10,28 -16,32 -43,30 -41,-3 -47,24 -13,56 14,14 26,31 26,39 0,16 -19,38 -34,38 -6,0 -5,-5 2,-12 22,-22 14,-45 -18,-50 -16,-3 -30,-2 -30,1 2,26 28,101 39,115 23,27 2,38 -55,27 -56,-11 -120,-36 -129,-51 -3,-5 15,-32 40,-59 50,-53 56,-84 17,-89 -18,-3 -22,-10 -22,-38 0,-19 -5,-34 -11,-34 -16,0 -34,-23 -34,-44 0,-11 -6,-21 -12,-23 -7,-3 -13,2 -13,10 0,9 -10,24 -22,34 -31,25 -60,85 -52,106 6,17 21,22 57,19 10,-1 15,3 12,8 -3,6 -15,10 -25,10 -11,0 -27,12 -36,28 -9,15 -26,40 -36,55 -16,23 -19,42 -17,95 2,37 0,73 -4,79 -4,7 -47,31 -95,54 -104,51 -98,47 -84,61 17,17 15,49 -5,77 -15,22 -17,23 -29,6 -18,-24 -44,-12 -44,20 0,37 -23,30 -36,-11 z m -205,-172 c -5,-15 -12,-33 -14,-41 -4,-11 -8,-11 -20,-1 -21,18 -19,39 7,60 29,23 40,16 27,-18 z m -59,-94 c 0,-9 3,-9 12,0 22,22 27,12 21,-40 -3,-36 -11,-58 -24,-67 -11,-7 -19,-22 -19,-32 0,-10 -4,-20 -8,-23 -13,-8 -35,11 -27,24 4,7 1,10 -10,8 -30,-5 -27,18 9,65 20,26 30,47 24,49 -6,2 -8,10 -4,16 9,16 26,15 26,0 z m -232,-27 c -4,-20 -48,-28 -48,-9 0,20 20,37 37,31 8,-3 13,-13 11,-22 z m -70,-13 c -2,-15 -11,-24 -25,-26 -27,-4 -30,10 -7,32 22,23 36,20 32,-6 z m -83,-18 c 8,-13 -4,-50 -16,-50 -13,0 -22,27 -15,45 6,17 22,20 31,5 z m 70,-30 c 3,-6 -1,-13 -10,-16 -19,-8 -30,0 -20,15 8,14 22,14 30,1 z m 1195,-149 c 0,-11 -5,-23 -11,-27 -15,-9 -33,12 -26,30 9,23 37,20 37,-3 z m -70,-95 c 0,-8 -4,-17 -9,-21 -12,-7 -24,12 -16,25 9,15 25,12 25,-4 z m 98,-23 c -4,-22 -22,-20 -26,1 -2,10 3,16 13,16 10,0 15,-7 13,-17 z m 49,-26 c -6,-20 -27,-19 -27,2 0,14 5,19 15,14 9,-3 14,-10 12,-16 z m -692,3 c 3,-6 -1,-13 -10,-16 -19,-8 -30,0 -20,15 8,14 22,14 30,1 z m 1159,-38 c 2,-4 -10,-20 -27,-34 -114,-98 -119,-101 -137,-69 -17,33 -13,71 9,71 10,0 21,7 25,15 4,10 14,13 34,9 17,-4 32,-1 36,5 8,12 52,15 60,3 z m -536,-18 c 7,-2 12,-14 10,-26 -3,-24 -12,-26 -108,-19 -19,2 -45,0 -57,-4 -25,-8 -28,0 -14,37 8,22 13,24 82,20 41,-2 80,-5 87,-8 z"
         id="path10069"
         style="fill:#00688f;fill-opacity:1" /><path
         d="m 3382,5634 c -13,-9 -35,-20 -50,-25 -20,-6 -14,-7 23,-3 71,7 85,13 78,30 -7,18 -23,18 -51,-2 z"
         id="path10071"
         style="fill:#00688f;fill-opacity:1" /><path
         d="m 2218,3713 c -22,-6 -24,-55 -4,-73 8,-6 13,-17 11,-23 -3,-7 0,-19 5,-27 8,-13 14,-12 47,5 45,24 52,47 19,64 -13,7 -29,24 -35,37 -11,24 -13,25 -43,17 z"
         id="path10073"
         style="fill:#00688f;fill-opacity:1" /><path
         d="m 3622,2556 c -43,-15 -58,-40 -43,-73 6,-13 11,-37 11,-53 0,-42 24,-62 66,-54 25,5 35,2 40,-9 5,-14 8,-13 23,2 12,12 16,28 13,52 -2,20 3,52 12,72 8,21 13,44 10,51 -10,27 -76,33 -132,12 z"
         id="path10075"
         style="fill:#00688f;fill-opacity:1" /></g><path
       style="mix-blend-mode:normal;fill:#00688f;fill-opacity:1;stroke-width:0.26264"
       d="M 74.844544,141.65227 V 520.31023"
       id="path10436"
       transform="matrix(0.95376071,0,0,1,4.988001,0)" /><path
       style="mix-blend-mode:normal;fill:#00688f;fill-opacity:1;stroke-width:0.264583"
       d="M 69.285137,495.81207 H 133.63303"
       id="path10830"
       transform="matrix(0.95376071,0,0,1,4.988001,0)" /><path
       id="rect1045"
       style="mix-blend-mode:normal;fill:#00688f;fill-opacity:1;stroke-width:0.337409"
       d="M 86.923595,251.75974 H 75.553811 V 453.86007 H 110.427 V 293.98714 Z"
       transform="matrix(0.99288643,0,0,1.0652746,2.0558818,-16.393522)" /></g></svg>
